if (_typeface_js && _typeface_js.loadFace) _typeface_js.loadFace({"glyphs":{"0":{"ha":797,"x_min":0,"x_max":0,"o":"m 749 335 b 399 685 749 547 613 685 b 47 331 186 685 47 544 b 396 -21 47 118 182 -21 b 749 335 610 -21 749 121 z m 542 332 b 399 140 542 211 483 140 b 254 332 313 140 254 210 b 397 524 254 451 311 524 b 542 332 483 524 542 453 z "},"1":{"ha":538,"x_min":0,"x_max":0,"o":"m 213 0 l 425 0 l 425 688 l 47 606 l 51 429 l 213 467 z "},"2":{"ha":694,"x_min":0,"x_max":0,"o":"m 657 0 l 654 174 l 347 174 b 624 467 526 265 624 353 b 340 686 624 594 519 686 b 40 592 232 686 118 646 l 88 433 b 290 507 158 479 229 507 b 396 429 360 507 396 478 b 57 149 396 353 276 288 l 57 0 z "},"3":{"ha":668,"x_min":0,"x_max":0,"o":"m 440 243 b 617 457 538 276 617 354 b 313 686 617 596 488 686 b 17 592 189 686 93 646 l 64 436 b 260 511 125 479 194 511 b 388 419 344 511 388 478 b 153 278 388 328 275 300 l 153 124 b 267 131 186 128 228 132 b 425 21 374 126 425 92 b 268 -92 425 -54 364 -94 b 40 -24 192 -90 106 -61 l 15 -194 b 286 -260 89 -235 182 -260 b 643 24 481 -260 643 -156 b 440 243 643 126 574 218 z "},"4":{"ha":796,"x_min":0,"x_max":0,"o":"m 782 4 l 778 174 l 644 174 l 644 674 l 411 674 l 35 136 l 61 4 l 444 4 l 444 -242 l 644 -242 l 644 4 z m 454 169 l 243 169 l 454 485 z "},"5":{"ha":682,"x_min":0,"x_max":0,"o":"m 271 318 l 294 492 l 633 492 l 629 667 l 121 667 l 61 172 l 90 139 b 264 165 136 154 199 165 b 443 40 392 165 443 113 b 285 -87 443 -40 383 -87 b 50 -28 211 -87 114 -58 l 31 -208 b 292 -260 103 -242 208 -260 b 649 58 513 -260 649 -125 b 339 321 649 208 540 321 b 271 318 306 321 288 319 z "},"6":{"ha":792,"x_min":0,"x_max":0,"o":"m 51 379 b 401 -21 51 147 178 -21 b 749 307 625 -21 749 122 b 488 581 749 481 639 581 b 271 496 389 581 317 542 l 265 500 b 649 757 306 636 460 724 l 597 931 b 51 379 254 882 51 646 z m 274 310 b 281 375 274 332 276 357 b 407 422 307 399 356 422 b 532 288 485 422 532 369 b 407 140 532 197 483 140 b 274 310 322 140 274 221 z "},"7":{"ha":694,"x_min":0,"x_max":0,"o":"m 453 483 l 89 -242 l 296 -242 l 668 522 l 668 667 l 29 667 l 25 483 z "},"8":{"ha":743,"x_min":0,"x_max":0,"o":"m 407 501 b 258 629 311 533 258 571 b 375 733 258 688 301 733 b 490 619 444 733 490 692 b 407 501 490 579 463 532 z m 338 364 b 503 232 436 333 503 294 b 378 128 503 165 457 128 b 243 240 294 128 243 175 b 338 364 243 283 274 333 z m 528 451 b 686 642 625 482 686 553 b 379 883 686 792 567 883 b 57 622 163 883 57 775 b 219 415 57 515 131 454 b 43 221 113 389 43 315 b 368 -21 43 68 176 -21 b 699 243 592 -21 699 94 b 528 451 699 353 621 414 z "},"9":{"ha":792,"x_min":0,"x_max":0,"o":"m 740 286 b 390 686 740 517 614 686 b 43 353 168 686 43 536 b 308 85 43 182 157 85 b 515 168 399 85 474 124 l 521 164 b 143 -92 485 29 332 -60 l 196 -264 b 740 286 538 -217 740 19 z m 518 356 b 511 289 518 333 515 308 b 385 243 485 267 438 243 b 260 378 308 243 260 296 b 385 524 260 468 308 524 b 518 356 471 524 518 444 z "}," ":{"ha":219,"x_min":0,"x_max":0,"o":""}," ":{"ha":106,"x_min":0,"x_max":0,"o":""},"A":{"ha":893,"x_min":0,"x_max":0,"o":"m 588 868 l 311 868 l 3 0 l 222 0 l 285 185 l 607 185 l 671 0 l 890 0 z m 558 357 l 332 357 l 447 697 z "},"B":{"ha":861,"x_min":0,"x_max":0,"o":"m 633 454 b 794 642 733 482 794 543 b 467 868 794 769 725 868 l 90 868 l 90 0 l 469 0 b 821 253 747 0 821 114 b 633 454 821 360 744 433 z m 574 606 b 435 503 574 540 526 503 b 304 503 431 503 306 503 l 304 703 b 446 703 304 703 431 703 b 574 606 529 703 574 669 z m 599 265 b 453 165 599 197 553 165 b 304 165 433 165 304 165 l 304 365 b 446 365 304 365 440 365 b 599 265 539 365 599 339 z "},"C":{"ha":851,"x_min":0,"x_max":0,"o":"m 810 824 b 522 889 731 863 628 889 b 54 431 236 889 54 711 b 515 -21 54 139 238 -21 b 800 42 617 -21 732 4 l 754 238 b 525 167 689 194 610 167 b 276 436 368 167 276 271 b 524 701 276 600 374 701 b 743 639 601 701 678 678 z "},"D":{"ha":946,"x_min":0,"x_max":0,"o":"m 896 440 b 417 868 896 699 722 868 b 90 868 357 868 90 868 l 90 0 b 401 0 90 0 397 0 b 896 440 719 0 896 174 z m 674 432 b 414 176 674 258 574 176 l 311 176 l 311 692 l 403 692 b 674 432 583 692 674 611 z "},"E":{"ha":785,"x_min":0,"x_max":0,"o":"m 725 0 l 725 178 l 307 178 l 307 347 l 643 347 l 643 524 l 307 524 l 307 690 l 725 690 l 725 868 l 90 868 l 90 0 z "},"F":{"ha":751,"x_min":0,"x_max":0,"o":"m 90 0 l 308 0 l 308 326 l 629 326 l 629 507 l 308 507 l 308 686 l 711 686 l 711 868 l 90 868 z "},"G":{"ha":935,"x_min":0,"x_max":0,"o":"m 865 60 l 865 489 l 451 489 l 451 314 l 665 314 l 665 186 b 526 160 629 171 576 160 b 274 436 361 160 274 263 b 529 701 274 597 374 701 b 779 629 613 701 697 676 l 849 814 b 522 889 765 864 633 889 b 54 431 238 889 54 715 b 521 -21 54 144 243 -21 b 865 60 647 -21 771 8 z "},"H":{"ha":971,"x_min":0,"x_max":0,"o":"m 881 0 l 881 868 l 660 868 l 660 531 l 311 531 l 311 868 l 90 868 l 90 0 l 311 0 l 311 344 l 660 344 l 660 0 z "},"I":{"ha":406,"x_min":0,"x_max":0,"o":"m 313 0 l 313 868 l 92 868 l 92 0 z "},"J":{"ha":654,"x_min":0,"x_max":0,"o":"m 571 306 l 571 868 l 350 868 l 350 322 b 225 163 350 210 315 163 b 57 217 171 163 115 183 l 13 39 b 260 -21 72 6 165 -21 b 571 306 474 -21 571 100 z "},"K":{"ha":868,"x_min":0,"x_max":0,"o":"m 311 485 l 311 868 l 90 868 l 90 0 l 311 0 b 311 382 311 0 311 357 l 313 382 l 599 0 l 863 0 l 511 444 l 854 868 l 601 868 l 313 485 z "},"L":{"ha":722,"x_min":0,"x_max":0,"o":"m 675 0 l 675 185 l 311 185 l 311 868 l 90 868 l 90 0 z "},"M":{"ha":1182,"x_min":0,"x_max":0,"o":"m 901 0 l 1111 0 l 1082 868 l 774 868 l 593 217 l 413 868 l 100 868 l 69 0 l 275 0 l 281 668 l 471 14 l 707 14 l 897 669 z "},"N":{"ha":988,"x_min":0,"x_max":0,"o":"m 690 304 l 329 868 l 90 868 l 90 0 l 297 0 l 297 563 l 663 -8 l 897 -8 l 897 868 l 690 868 z "},"O":{"ha":1018,"x_min":0,"x_max":0,"o":"m 964 438 b 510 889 964 731 768 889 b 54 432 251 889 54 707 b 507 -21 54 139 250 -21 b 964 438 765 -21 964 163 z m 742 432 b 511 157 742 269 657 157 b 276 438 363 157 276 271 b 507 711 276 600 360 711 b 742 432 654 711 742 599 z "},"P":{"ha":825,"x_min":0,"x_max":0,"o":"m 782 567 b 411 868 782 746 654 868 b 90 868 410 868 90 868 l 90 0 l 311 0 l 311 251 l 396 253 b 782 567 644 253 782 364 z m 563 561 b 394 424 563 474 508 425 l 306 422 l 306 693 b 394 693 306 693 374 693 b 563 561 506 693 563 649 z "},"Q":{"ha":1018,"x_min":0,"x_max":0,"o":"m 758 57 b 964 438 883 132 964 267 b 510 889 964 731 768 889 b 54 432 251 889 54 707 b 507 -21 54 139 250 -21 b 525 -19 514 -21 519 -21 l 910 -225 l 997 -46 z m 742 432 b 511 154 742 265 658 154 b 276 438 363 154 276 271 b 507 711 276 600 360 711 b 742 432 654 711 742 599 z "},"R":{"ha":857,"x_min":0,"x_max":0,"o":"m 311 283 l 413 292 l 586 0 l 835 0 l 613 343 b 790 593 729 388 790 476 b 439 868 790 761 669 868 b 90 868 447 868 90 868 l 90 0 l 311 0 z m 307 447 l 307 693 b 400 693 307 693 396 693 b 564 579 511 693 564 656 b 418 450 564 496 513 457 z "},"S":{"ha":783,"x_min":0,"x_max":0,"o":"m 379 161 b 82 242 272 161 168 196 l 40 58 b 375 -21 121 13 246 -21 b 731 261 603 -21 731 96 b 458 524 731 426 592 488 b 275 632 354 553 275 575 b 389 706 275 679 313 706 b 669 629 475 706 583 675 l 713 811 b 388 888 629 857 524 888 b 54 619 172 888 54 781 b 333 353 54 446 207 388 b 511 243 449 321 511 301 b 379 161 511 190 457 161 z "},"T":{"ha":836,"x_min":0,"x_max":0,"o":"m 804 683 l 804 868 l 31 868 l 31 683 l 307 683 l 307 0 l 528 0 l 528 683 z "},"U":{"ha":933,"x_min":0,"x_max":0,"o":"m 850 354 b 850 868 850 358 850 868 l 631 868 b 631 356 631 868 631 353 b 472 165 631 221 576 165 b 304 364 357 165 304 233 l 304 868 l 85 868 l 85 335 b 467 -21 85 90 240 -21 b 850 354 700 -21 850 103 z "},"V":{"ha":881,"x_min":0,"x_max":0,"o":"m 875 868 l 644 868 l 440 214 l 235 868 l 7 868 l 300 0 l 576 0 z "},"W":{"ha":1326,"x_min":0,"x_max":0,"o":"m 664 618 l 832 0 l 1063 0 l 1294 868 l 1068 868 l 951 254 l 793 868 l 540 868 l 385 254 l 268 868 l 32 868 l 264 0 l 493 0 z "},"X":{"ha":896,"x_min":0,"x_max":0,"o":"m 444 296 l 629 0 l 881 0 l 579 443 l 872 868 l 626 868 l 447 586 l 272 868 l 24 868 l 314 435 l 15 0 l 257 0 z "},"Y":{"ha":849,"x_min":0,"x_max":0,"o":"m 835 868 l 601 868 l 428 525 l 249 868 l 14 868 l 317 331 l 317 0 l 533 0 l 533 329 z "},"Z":{"ha":806,"x_min":0,"x_max":0,"o":"m 753 0 l 753 186 l 322 186 l 754 721 l 754 868 l 51 868 l 51 683 l 476 683 l 43 146 l 43 0 z "},"a":{"ha":710,"x_min":0,"x_max":0,"o":"m 424 164 b 324 121 401 139 367 121 b 243 190 276 121 243 149 b 424 288 243 247 292 272 z m 429 78 b 668 -12 458 7 528 -31 l 689 140 b 636 193 644 144 636 149 l 638 385 b 343 667 640 565 567 667 b 46 590 221 667 114 626 l 90 433 b 310 499 165 471 243 499 b 424 400 389 499 424 468 l 424 388 b 42 158 133 379 42 281 b 239 -21 42 58 128 -21 b 425 78 328 -21 379 24 z "},"b":{"ha":788,"x_min":0,"x_max":0,"o":"m 747 331 b 472 667 747 536 632 667 b 290 579 390 667 331 621 b 290 944 290 586 290 944 l 76 918 l 76 -21 l 278 7 b 424 -19 319 -8 381 -19 b 747 331 599 -19 747 117 z m 533 319 b 389 140 533 213 481 140 b 290 167 349 140 315 150 b 290 451 290 167 290 453 b 399 496 319 478 351 496 b 533 319 486 496 533 431 z "},"c":{"ha":672,"x_min":0,"x_max":0,"o":"m 629 32 l 597 194 b 426 146 547 164 492 146 b 261 325 326 146 261 210 b 421 501 261 429 318 501 b 592 451 478 501 540 481 l 633 613 b 399 667 575 646 489 667 b 43 318 182 667 43 532 b 393 -21 43 99 179 -21 b 629 32 486 -21 575 -1 z "},"d":{"ha":792,"x_min":0,"x_max":0,"o":"m 500 643 b 367 665 460 657 414 665 b 43 315 193 665 43 529 b 319 -19 43 111 160 -19 b 500 67 400 -19 460 25 b 500 0 500 60 500 0 l 714 0 l 714 944 l 500 918 z m 500 479 b 500 196 500 479 500 193 b 392 151 472 168 439 151 b 257 326 313 151 257 217 b 401 507 257 433 311 507 b 500 479 442 507 476 496 z "},"e":{"ha":719,"x_min":0,"x_max":0,"o":"m 251 275 l 661 282 b 675 396 669 310 675 361 b 392 667 675 557 575 667 b 42 318 186 667 42 529 b 403 -19 42 103 183 -19 b 654 33 496 -19 589 0 l 633 199 b 422 136 568 161 493 136 b 251 272 318 136 258 186 z m 253 382 b 378 519 260 456 304 519 b 476 396 444 519 476 472 b 476 383 476 393 476 386 z "},"f":{"ha":515,"x_min":0,"x_max":0,"o":"m 540 935 b 365 967 506 949 444 967 b 113 699 203 967 118 886 l 111 643 l 7 613 l 1 476 l 113 468 l 113 0 l 326 0 l 326 469 l 493 469 l 497 638 l 317 638 l 317 689 b 392 783 317 751 336 783 b 500 758 435 783 467 771 b 540 935 500 757 540 933 z "},"g":{"ha":733,"x_min":0,"x_max":0,"o":"m 246 415 b 343 535 246 488 282 535 b 442 421 410 535 442 489 b 347 301 442 349 413 301 b 246 415 279 301 246 347 z m 236 -67 b 364 -71 260 -68 324 -71 b 531 -135 476 -71 531 -83 b 347 -222 531 -190 451 -222 b 185 -137 249 -222 185 -187 b 236 -67 185 -104 207 -81 z m 151 -43 b -3 -179 49 -56 -3 -115 b 313 -347 -3 -293 139 -347 b 717 -82 524 -347 717 -243 b 418 100 717 56 594 100 b 342 100 424 100 342 100 b 224 140 257 100 224 111 b 261 188 224 163 243 178 b 347 178 293 182 318 178 b 631 411 514 178 631 281 b 613 482 631 433 624 469 l 738 463 l 728 636 l 546 621 b 349 667 497 643 425 667 b 42 417 157 667 42 557 b 172 217 42 325 96 253 b 39 74 94 194 39 135 b 151 -43 39 14 94 -26 z "},"h":{"ha":785,"x_min":0,"x_max":0,"o":"m 713 0 l 713 444 b 508 667 713 582 636 667 b 290 557 424 667 347 622 b 290 944 290 568 290 944 l 76 918 l 76 0 l 290 0 l 290 436 b 410 485 318 461 360 485 b 499 382 464 485 499 460 l 499 0 z "},"i":{"ha":367,"x_min":0,"x_max":0,"o":"m 310 851 b 183 967 310 926 263 967 b 57 851 106 967 57 926 b 183 738 57 778 106 738 b 310 851 263 738 310 778 z m 290 0 l 290 661 l 76 635 l 76 0 z "},"j":{"ha":365,"x_min":0,"x_max":0,"o":"m 310 851 b 183 967 310 926 263 967 b 57 851 106 967 57 926 b 183 738 57 778 106 738 b 310 851 263 738 310 778 z m 85 -336 b 290 15 236 -283 290 -175 b 290 661 290 8 290 661 l 76 635 b 76 29 76 635 76 8 b -37 -192 76 -108 42 -154 z "},"k":{"ha":739,"x_min":0,"x_max":0,"o":"m 292 303 l 493 0 l 736 0 l 497 339 l 735 646 l 489 646 l 292 368 l 290 368 l 290 944 l 76 918 l 76 0 l 290 0 l 290 303 z "},"l":{"ha":367,"x_min":0,"x_max":0,"o":"m 290 0 l 290 944 l 76 918 l 76 0 z "},"m":{"ha":1176,"x_min":0,"x_max":0,"o":"m 1103 0 l 1103 443 b 901 667 1103 582 1026 667 b 678 551 814 667 738 621 b 496 667 647 626 576 667 b 290 571 411 667 347 629 b 290 661 290 572 290 661 l 76 635 l 76 0 l 290 0 l 290 446 b 394 485 317 468 351 485 b 483 381 449 485 483 458 l 483 0 l 697 0 l 697 406 l 697 443 b 801 485 722 465 758 485 b 889 381 856 485 889 458 l 889 0 z "},"n":{"ha":785,"x_min":0,"x_max":0,"o":"m 713 0 l 713 444 b 507 667 713 582 636 667 b 290 556 424 667 347 621 b 290 661 290 565 290 661 l 76 635 l 76 0 l 290 0 l 290 436 b 407 485 318 461 360 485 b 499 382 464 485 499 460 l 499 0 z "},"o":{"ha":776,"x_min":0,"x_max":0,"o":"m 735 325 b 393 667 735 542 588 667 b 42 321 197 667 42 540 b 385 -21 42 101 190 -21 b 735 325 578 -21 735 108 z m 522 324 b 389 143 522 213 476 143 b 254 322 301 143 254 213 b 388 504 254 433 300 504 b 522 324 475 504 522 432 z "},"p":{"ha":792,"x_min":0,"x_max":0,"o":"m 290 579 b 290 661 290 582 290 661 l 76 635 l 76 -287 l 290 -287 l 290 1 b 424 -19 331 -11 381 -19 b 747 331 599 -19 747 117 b 471 667 747 536 631 667 b 290 579 389 667 331 621 z m 290 451 b 399 496 319 478 351 496 b 533 319 486 496 533 431 b 389 140 533 213 481 140 b 290 167 349 140 315 150 b 290 451 290 167 290 453 z "},"q":{"ha":792,"x_min":0,"x_max":0,"o":"m 714 -287 l 714 661 l 522 635 b 367 665 485 651 418 665 b 43 315 193 665 43 529 b 319 -19 43 111 160 -19 b 500 67 400 -19 460 25 b 500 -287 500 60 500 -287 z m 500 479 b 500 196 500 479 500 193 b 392 150 472 168 439 150 b 257 326 313 150 257 217 b 401 507 257 433 311 507 b 500 479 442 507 476 496 z "},"r":{"ha":557,"x_min":0,"x_max":0,"o":"m 290 376 b 429 471 329 444 376 471 b 510 451 457 471 485 464 l 553 640 b 446 667 518 658 481 667 b 290 567 378 667 328 632 l 290 661 l 76 635 l 76 0 l 290 0 z "},"s":{"ha":639,"x_min":0,"x_max":0,"o":"m 600 192 b 357 404 600 321 510 371 b 246 468 286 419 246 433 b 325 517 246 500 274 517 b 547 458 386 517 474 494 l 590 611 b 328 667 526 642 414 667 b 43 460 149 667 43 581 b 289 249 43 333 139 278 b 399 182 363 232 399 218 b 311 129 399 149 368 129 b 75 190 236 129 150 151 l 33 36 b 307 -21 101 0 218 -21 b 600 192 497 -21 600 75 z "},"t":{"ha":524,"x_min":0,"x_max":0,"o":"m 493 3 l 468 169 b 383 153 439 160 410 153 b 299 238 331 153 296 178 l 306 469 l 478 469 l 482 638 l 321 638 l 322 792 l 115 792 l 113 644 l 15 613 l 11 476 l 108 460 l 99 214 b 336 -21 90 44 176 -21 b 493 3 401 -21 443 -12 z "},"u":{"ha":775,"x_min":0,"x_max":0,"o":"m 72 646 l 72 201 b 275 -21 72 64 149 -21 b 485 79 360 -21 435 25 b 485 -17 485 78 485 -17 l 699 10 l 699 646 l 485 646 l 485 203 b 375 160 458 179 421 160 b 286 264 319 160 286 186 l 286 646 z "},"v":{"ha":714,"x_min":0,"x_max":0,"o":"m 719 646 l 489 646 l 357 203 l 224 646 l -6 646 l 233 -1 l 475 -1 z "},"w":{"ha":1071,"x_min":0,"x_max":0,"o":"m 414 -3 l 538 422 l 661 -3 l 878 -3 l 1061 646 l 839 646 l 764 224 l 653 646 l 429 646 l 319 217 l 232 646 l 15 646 l 197 -3 z "},"x":{"ha":690,"x_min":0,"x_max":0,"o":"m 696 0 l 474 332 l 688 646 l 460 646 l 344 460 l 225 646 l -1 646 l 215 329 l -7 0 l 224 0 l 346 207 l 469 0 z "},"y":{"ha":706,"x_min":0,"x_max":0,"o":"m 711 646 l 483 646 l 358 221 l 221 646 l -8 646 l 244 4 l 226 -46 b 135 -125 201 -108 181 -125 b 35 -96 101 -125 76 -114 l -29 -258 b 163 -300 31 -286 93 -300 b 446 -54 299 -300 379 -243 l 478 31 z "},"z":{"ha":638,"x_min":0,"x_max":0,"o":"m 608 0 l 608 175 l 307 175 l 608 518 l 608 646 l 38 646 l 38 469 l 328 469 l 25 128 l 25 0 z "},"ﬁ":{"ha":847,"x_min":0,"x_max":0,"o":"m 796 835 b 669 950 796 908 747 950 b 543 835 592 950 543 908 b 669 719 543 760 592 719 b 796 835 747 719 796 760 z m 515 940 b 364 967 479 953 425 967 b 113 699 203 967 118 886 l 111 643 l 7 613 l 1 476 l 113 468 l 113 0 l 326 0 l 326 469 l 483 469 l 488 638 l 317 638 l 317 689 b 392 783 317 751 336 783 b 479 763 424 783 450 775 b 515 940 479 761 515 940 z m 776 0 l 776 661 l 563 635 l 563 0 z "},"ﬂ":{"ha":881,"x_min":0,"x_max":0,"o":"m 540 935 b 365 967 506 949 444 967 b 113 699 203 967 118 886 l 111 643 l 7 613 l 1 476 l 113 468 l 113 0 l 326 0 l 326 469 l 493 469 l 497 638 l 317 638 l 317 689 b 392 783 317 751 336 783 b 500 758 435 783 467 771 b 540 935 500 757 540 933 z m 804 0 l 804 944 l 590 918 l 590 0 z "},"ﬀ":{"ha":996,"x_min":0,"x_max":0,"o":"m 326 469 l 593 469 l 593 0 l 807 0 l 807 469 l 974 469 l 978 638 l 799 638 l 799 689 b 874 783 799 751 818 783 b 981 758 917 783 949 771 b 1022 935 981 757 1022 933 b 846 967 988 949 925 967 b 593 699 685 967 599 886 l 592 638 l 317 638 l 317 675 b 392 769 317 738 336 769 b 500 744 435 769 467 757 b 540 921 500 743 540 919 b 365 953 506 935 444 953 b 113 685 203 953 118 872 l 111 643 l 7 613 l 1 476 l 113 468 l 113 0 l 326 0 z "},"ﬃ":{"ha":1329,"x_min":0,"x_max":0,"o":"m 1278 835 b 1151 950 1278 908 1229 950 b 1025 835 1072 950 1025 908 b 1151 719 1025 760 1072 719 b 1278 835 1229 719 1278 760 z m 326 469 l 593 469 l 593 0 l 807 0 l 807 469 l 965 469 l 969 638 l 799 638 l 799 689 b 874 783 799 751 818 783 b 960 763 904 783 932 775 b 996 940 960 761 996 940 b 846 967 960 953 906 967 b 593 699 683 967 599 886 l 592 638 l 317 638 l 317 675 b 392 769 317 738 336 769 b 500 744 435 769 467 757 b 540 921 500 743 540 919 b 365 953 506 935 444 953 b 113 685 203 953 118 872 l 111 643 l 7 613 l 1 476 l 113 468 l 113 0 l 326 0 z m 1257 0 l 1257 661 l 1043 635 l 1043 0 z "},"ﬄ":{"ha":1361,"x_min":0,"x_max":0,"o":"m 326 469 l 593 469 l 593 0 l 807 0 l 807 469 l 974 469 l 978 638 l 799 638 l 799 689 b 874 783 799 751 818 783 b 981 758 917 783 949 771 b 1022 935 981 757 1022 933 b 846 967 988 949 925 967 b 593 699 685 967 599 886 l 592 638 l 317 638 l 317 675 b 392 769 317 738 336 769 b 500 744 435 769 467 757 b 540 921 500 743 540 919 b 365 953 506 935 444 953 b 113 685 203 953 118 872 l 111 643 l 7 613 l 1 476 l 113 468 l 113 0 l 326 0 z m 1285 0 l 1285 944 l 1071 918 l 1071 0 z "},"ß":{"ha":896,"x_min":0,"x_max":0,"o":"m 113 0 l 324 0 l 324 690 b 438 810 324 769 364 810 b 538 706 494 810 538 761 b 442 478 538 617 442 589 b 644 214 442 322 644 331 b 557 142 644 167 614 142 b 411 192 511 142 456 164 l 382 28 b 601 -22 442 0 517 -22 b 871 224 776 -22 871 76 b 631 526 871 435 631 453 b 751 725 631 582 751 601 b 444 968 751 872 639 968 b 113 696 263 968 118 896 b 111 643 113 699 111 643 l 7 613 l 1 476 l 113 468 z "},"À":{"ha":893,"x_min":0,"x_max":0,"o":"m 588 868 l 311 868 l 3 0 l 222 0 l 285 185 l 607 185 l 671 0 l 890 0 z m 558 357 l 332 357 l 447 697 z m 521 928 l 383 1185 l 153 1185 l 388 928 z "},"à":{"ha":710,"x_min":0,"x_max":0,"o":"m 414 732 l 276 989 l 46 989 l 281 732 z m 424 164 b 324 121 401 139 367 121 b 243 190 276 121 243 149 b 424 288 243 247 292 272 z m 429 78 b 668 -12 458 7 528 -31 l 689 140 b 636 193 644 144 636 149 l 638 385 b 343 667 640 565 567 667 b 46 590 221 667 114 626 l 90 433 b 310 499 165 471 243 499 b 424 400 389 499 424 468 l 424 388 b 42 158 133 379 42 281 b 239 -21 42 58 128 -21 b 425 78 328 -21 379 24 z "},"Á":{"ha":893,"x_min":0,"x_max":0,"o":"m 588 868 l 311 868 l 3 0 l 222 0 l 285 185 l 607 185 l 671 0 l 890 0 z m 558 357 l 332 357 l 447 697 z m 742 1185 l 511 1185 l 374 928 l 507 928 z "},"á":{"ha":710,"x_min":0,"x_max":0,"o":"m 424 164 b 324 121 401 139 367 121 b 243 190 276 121 243 149 b 424 288 243 247 292 272 z m 429 78 b 668 -12 458 7 528 -31 l 689 140 b 636 193 644 144 636 149 l 638 385 b 343 667 640 565 567 667 b 46 590 221 667 114 626 l 90 433 b 310 499 165 471 243 499 b 424 400 389 499 424 468 l 424 388 b 42 158 133 379 42 281 b 239 -21 42 58 128 -21 b 425 78 328 -21 379 24 z m 614 989 l 383 989 l 246 732 l 379 732 z "},"Â":{"ha":893,"x_min":0,"x_max":0,"o":"m 588 868 l 311 868 l 3 0 l 222 0 l 285 185 l 607 185 l 671 0 l 890 0 z m 558 357 l 332 357 l 447 697 z m 710 928 l 544 1188 l 350 1188 l 185 928 l 333 928 l 446 1076 l 449 1076 l 564 928 z "},"â":{"ha":710,"x_min":0,"x_max":0,"o":"m 424 164 b 324 121 401 139 367 121 b 243 190 276 121 243 149 b 424 288 243 247 292 272 z m 429 78 b 668 -12 458 7 528 -31 l 689 140 b 636 193 644 144 636 149 l 638 385 b 343 667 640 565 567 667 b 46 590 221 667 114 626 l 90 433 b 310 499 165 471 243 499 b 424 400 389 499 424 468 l 424 388 b 42 158 133 379 42 281 b 239 -21 42 58 128 -21 b 425 78 328 -21 379 24 z m 599 732 l 433 992 l 239 992 l 74 732 l 222 732 l 335 881 l 338 881 l 453 732 z "},"Ã":{"ha":893,"x_min":0,"x_max":0,"o":"m 588 868 l 311 868 l 3 0 l 222 0 l 285 185 l 607 185 l 671 0 l 890 0 z m 558 357 l 332 357 l 447 697 z m 714 1144 b 586 1144 719 1144 592 1144 b 543 1074 579 1089 567 1074 b 332 1153 499 1074 419 1153 b 181 942 250 1153 197 1107 b 307 942 174 942 301 942 b 351 1011 314 997 328 1011 b 561 932 394 1011 475 932 b 714 1144 643 932 697 978 z "},"ã":{"ha":710,"x_min":0,"x_max":0,"o":"m 424 164 b 324 121 401 139 367 121 b 243 190 276 121 243 149 b 424 288 243 247 292 272 z m 429 78 b 668 -12 458 7 528 -31 l 689 140 b 636 193 644 144 636 149 l 638 385 b 343 667 640 565 567 667 b 46 590 221 667 114 626 l 90 433 b 310 499 165 471 243 499 b 424 400 389 499 424 468 l 424 388 b 42 158 133 379 42 281 b 239 -21 42 58 128 -21 b 425 78 328 -21 379 24 z m 611 949 b 483 949 617 949 489 949 b 440 878 476 893 464 878 b 229 957 396 878 317 957 b 78 746 147 957 94 911 b 204 746 71 746 199 746 b 249 815 211 801 225 815 b 458 736 292 815 372 736 b 611 949 540 736 594 782 z "},"Ä":{"ha":893,"x_min":0,"x_max":0,"o":"m 588 868 l 311 868 l 3 0 l 222 0 l 285 185 l 607 185 l 671 0 l 890 0 z m 558 357 l 332 357 l 447 697 z m 714 1040 b 604 1147 714 1110 671 1147 b 494 1040 539 1147 494 1110 b 604 933 494 971 539 933 b 714 1040 671 933 714 971 z m 392 1040 b 281 1147 392 1110 346 1147 b 169 1040 215 1147 169 1110 b 281 933 169 971 215 933 b 392 1040 346 933 392 971 z "},"ä":{"ha":710,"x_min":0,"x_max":0,"o":"m 424 164 b 324 121 401 139 367 121 b 243 190 276 121 243 149 b 424 288 243 247 292 272 z m 429 78 b 668 -12 458 7 528 -31 l 689 140 b 636 193 644 144 636 149 l 638 385 b 343 667 640 565 567 667 b 46 590 221 667 114 626 l 90 433 b 310 499 165 471 243 499 b 424 400 389 499 424 468 l 424 388 b 42 158 133 379 42 281 b 239 -21 42 58 128 -21 b 425 78 328 -21 379 24 z m 617 835 b 507 942 617 904 574 942 b 397 835 442 942 397 904 b 507 728 397 765 442 728 b 617 835 574 728 617 765 z m 294 835 b 183 942 294 904 249 942 b 72 835 118 942 72 904 b 183 728 72 765 118 728 b 294 835 249 728 294 765 z "},"Å":{"ha":893,"x_min":0,"x_max":0,"o":"m 558 357 l 332 357 l 447 697 z m 304 847 l 3 0 l 222 0 l 285 185 l 607 185 l 671 0 l 890 0 l 592 849 b 643 960 625 876 643 915 b 447 1124 643 1053 568 1124 b 253 960 328 1124 253 1050 b 304 847 253 914 271 875 z m 563 961 b 447 864 563 906 518 864 b 335 961 379 864 335 906 b 447 1056 335 1017 379 1056 b 563 961 518 1056 563 1017 z "},"å":{"ha":710,"x_min":0,"x_max":0,"o":"m 424 164 b 324 121 401 139 367 121 b 243 190 276 121 243 149 b 424 288 243 247 292 272 z m 429 78 b 668 -12 458 7 528 -31 l 689 140 b 636 193 644 144 636 149 l 638 385 b 343 667 640 565 567 667 b 46 590 221 667 114 626 l 90 433 b 310 499 165 471 243 499 b 424 400 389 499 424 468 l 424 388 b 42 158 133 379 42 281 b 239 -21 42 58 128 -21 b 425 78 328 -21 379 24 z m 524 889 b 328 1053 524 982 449 1053 b 132 889 207 1053 132 981 b 328 725 132 797 207 725 b 524 889 449 725 525 797 z m 442 890 b 328 793 442 835 399 793 b 215 890 260 793 215 835 b 328 985 215 946 260 985 b 442 890 399 985 442 946 z "},"Ǻ":{"ha":893,"x_min":0,"x_max":0,"o":"m 665 1408 l 435 1408 l 297 1151 l 431 1151 z m 558 357 l 332 357 l 447 697 z m 304 847 l 3 0 l 222 0 l 285 185 l 607 185 l 671 0 l 890 0 l 592 849 b 643 960 625 876 643 915 b 447 1124 643 1053 568 1124 b 253 960 328 1124 253 1050 b 304 847 253 914 271 875 z m 563 961 b 447 864 563 906 518 864 b 335 961 379 864 335 906 b 447 1056 335 1017 379 1056 b 563 961 518 1056 563 1017 z "},"ǻ":{"ha":710,"x_min":0,"x_max":0,"o":"m 424 164 b 324 121 401 139 367 121 b 243 190 276 121 243 149 b 424 288 243 247 292 272 z m 429 78 b 668 -12 458 7 528 -31 l 689 140 b 636 193 644 144 636 149 l 638 385 b 343 667 640 565 567 667 b 46 590 221 667 114 626 l 90 433 b 310 499 165 471 243 499 b 424 400 389 499 424 468 l 424 388 b 42 158 133 379 42 281 b 239 -21 42 58 128 -21 b 425 78 328 -21 379 24 z m 576 1343 l 346 1343 l 208 1086 l 342 1086 z m 522 889 b 326 1053 522 982 447 1053 b 131 889 206 1053 131 981 b 326 725 131 797 206 725 b 522 889 447 725 524 797 z m 440 890 b 326 793 440 835 397 793 b 214 890 258 793 214 835 b 326 985 214 946 258 985 b 440 890 397 985 440 946 z "},"Ā":{"ha":893,"x_min":0,"x_max":0,"o":"m 588 868 l 311 868 l 3 0 l 222 0 l 285 185 l 607 185 l 671 0 l 890 0 z m 558 357 l 332 357 l 447 697 z m 699 985 l 683 1106 l 208 1106 l 193 985 z "},"ā":{"ha":710,"x_min":0,"x_max":0,"o":"m 424 164 b 324 121 401 139 367 121 b 243 190 276 121 243 149 b 424 288 243 247 292 272 z m 429 78 b 668 -12 458 7 528 -31 l 689 140 b 636 193 644 144 636 149 l 638 385 b 343 667 640 565 567 667 b 46 590 221 667 114 626 l 90 433 b 310 499 165 471 243 499 b 424 400 389 499 424 468 l 424 388 b 42 158 133 379 42 281 b 239 -21 42 58 128 -21 b 425 78 328 -21 379 24 z m 596 763 l 581 883 l 106 883 l 90 763 z "},"Ă":{"ha":893,"x_min":0,"x_max":0,"o":"m 588 868 l 311 868 l 3 0 l 222 0 l 285 185 l 607 185 l 671 0 l 890 0 z m 558 357 l 332 357 l 447 697 z m 699 1208 l 569 1207 b 446 1067 556 1124 517 1067 b 322 1207 376 1067 338 1124 l 193 1208 b 446 944 208 1025 325 944 b 699 1208 569 944 683 1025 z "},"ă":{"ha":710,"x_min":0,"x_max":0,"o":"m 424 164 b 324 121 401 139 367 121 b 243 190 276 121 243 149 b 424 288 243 247 292 272 z m 429 78 b 668 -12 458 7 528 -31 l 689 140 b 636 193 644 144 636 149 l 638 385 b 343 667 640 565 567 667 b 46 590 221 667 114 626 l 90 433 b 310 499 165 471 243 499 b 424 400 389 499 424 468 l 424 388 b 42 158 133 379 42 281 b 239 -21 42 58 128 -21 b 425 78 328 -21 379 24 z m 596 986 l 467 985 b 343 844 453 901 414 844 b 219 985 274 844 235 901 l 90 986 b 343 722 106 803 222 722 b 596 986 467 722 581 803 z "},"Ą":{"ha":893,"x_min":0,"x_max":0,"o":"m 588 868 l 311 868 l 3 0 l 222 0 l 285 185 l 607 185 l 669 0 b 544 -164 601 -28 544 -87 b 713 -306 544 -251 611 -306 b 857 -268 778 -306 822 -290 l 828 -160 b 757 -178 810 -171 782 -178 b 697 -115 719 -178 697 -156 b 890 0 697 -54 776 -8 z m 558 357 l 332 357 l 447 697 z "},"ą":{"ha":710,"x_min":0,"x_max":0,"o":"m 429 78 b 488 8 442 49 460 25 b 357 -164 414 -24 357 -85 b 524 -306 357 -251 424 -306 b 669 -268 590 -306 633 -290 l 640 -160 b 569 -178 622 -171 594 -178 b 508 -115 531 -178 508 -156 b 668 -12 508 -58 585 -21 l 689 140 b 636 193 644 144 636 149 l 638 385 b 343 667 640 565 567 667 b 46 590 221 667 114 626 l 90 433 b 310 499 165 471 243 499 b 424 400 389 499 424 468 l 424 388 b 42 158 133 379 42 281 b 239 -21 42 58 128 -21 b 425 78 328 -21 379 24 z m 424 164 b 324 121 401 139 367 121 b 243 190 276 121 243 149 b 424 288 243 247 292 272 z "},"Æ":{"ha":1246,"x_min":0,"x_max":0,"o":"m 390 361 l 560 726 l 560 361 z m 313 185 l 560 185 l 560 0 l 1193 0 l 1193 178 l 775 178 l 775 347 l 1121 347 l 1121 524 l 775 524 l 775 690 l 1193 690 l 1193 868 l 413 868 l -10 0 l 226 0 z "},"æ":{"ha":1092,"x_min":0,"x_max":0,"o":"m 482 114 b 774 -19 540 31 640 -19 b 1024 33 867 -19 958 0 l 1003 199 b 793 136 939 161 863 136 b 621 272 689 136 629 186 l 621 275 l 1032 282 b 1046 396 1040 310 1046 361 b 771 667 1046 550 953 667 b 567 597 685 667 621 640 b 346 665 522 640 454 665 b 46 590 224 665 114 626 l 90 433 b 310 499 165 471 243 499 b 432 399 389 499 432 471 l 432 388 b 42 158 139 382 42 281 b 239 -21 42 58 128 -21 b 482 114 343 -21 422 40 z m 624 382 b 747 519 631 456 675 519 b 847 396 815 519 847 472 b 846 383 847 393 847 386 z m 431 288 b 449 181 432 256 440 208 b 325 121 414 143 368 121 b 243 190 276 121 243 149 b 431 288 243 249 297 276 z "},"Ǽ":{"ha":1246,"x_min":0,"x_max":0,"o":"m 1032 1211 l 801 1211 l 664 954 l 797 954 z m 390 361 l 560 726 l 560 361 z m 313 185 l 560 185 l 560 0 l 1193 0 l 1193 178 l 775 178 l 775 347 l 1121 347 l 1121 524 l 775 524 l 775 690 l 1193 690 l 1193 868 l 413 868 l -10 0 l 226 0 z "},"ǽ":{"ha":1092,"x_min":0,"x_max":0,"o":"m 804 989 l 574 989 l 436 732 l 569 732 z m 482 114 b 774 -19 540 31 640 -19 b 1024 33 867 -19 958 0 l 1003 199 b 793 136 939 161 863 136 b 621 272 689 136 629 186 l 621 275 l 1032 282 b 1046 396 1040 310 1046 361 b 771 667 1046 550 953 667 b 567 597 685 667 621 640 b 346 665 522 640 454 665 b 46 590 224 665 114 626 l 90 433 b 310 499 165 471 243 499 b 432 399 389 499 432 471 l 432 388 b 42 158 139 382 42 281 b 239 -21 42 58 128 -21 b 482 114 343 -21 422 40 z m 624 382 b 747 519 631 456 675 519 b 847 396 815 519 847 472 b 846 383 847 393 847 386 z m 431 288 b 449 181 432 256 440 208 b 325 121 414 143 368 121 b 243 190 276 121 243 149 b 431 288 243 249 297 276 z "},"Ç":{"ha":851,"x_min":0,"x_max":0,"o":"m 432 -15 l 350 -92 l 364 -162 b 525 -222 471 -154 525 -171 b 363 -294 525 -262 482 -289 l 374 -393 b 650 -208 568 -369 650 -301 b 474 -71 650 -122 568 -75 b 531 -21 485 -61 507 -42 b 800 42 628 -18 735 6 l 754 238 b 525 167 689 194 610 167 b 276 436 368 167 276 271 b 524 701 276 600 374 701 b 743 639 601 701 678 678 l 810 824 b 522 889 731 863 628 889 b 54 431 236 889 54 711 b 432 -15 54 169 201 14 z "},"ç":{"ha":674,"x_min":0,"x_max":0,"o":"m 329 -17 l 249 -92 l 263 -162 b 424 -222 369 -154 424 -171 b 261 -294 424 -262 381 -289 l 272 -393 b 549 -208 467 -369 549 -301 b 372 -71 549 -122 467 -75 b 429 -19 383 -61 406 -42 b 629 32 508 -15 582 3 l 597 194 b 426 146 547 164 492 146 b 261 325 326 146 261 210 b 421 501 261 429 318 501 b 592 451 478 501 540 481 l 633 613 b 399 667 575 646 489 667 b 43 318 182 667 43 532 b 329 -17 43 121 153 6 z "},"Ć":{"ha":851,"x_min":0,"x_max":0,"o":"m 703 1211 l 472 1211 l 335 954 l 468 954 z m 810 824 b 522 889 731 863 628 889 b 54 431 236 889 54 711 b 515 -21 54 139 238 -21 b 800 42 617 -21 732 4 l 754 238 b 525 167 689 194 610 167 b 276 436 368 167 276 271 b 524 701 276 600 374 701 b 743 639 601 701 678 678 z "},"ć":{"ha":672,"x_min":0,"x_max":0,"o":"m 617 989 l 386 989 l 249 732 l 382 732 z m 629 32 l 597 194 b 426 146 547 164 492 146 b 261 325 326 146 261 210 b 421 501 261 429 318 501 b 592 451 478 501 540 481 l 633 613 b 399 667 575 646 489 667 b 43 318 182 667 43 532 b 393 -21 43 99 179 -21 b 629 32 486 -21 575 -1 z "},"Ĉ":{"ha":851,"x_min":0,"x_max":0,"o":"m 743 954 l 578 1214 l 383 1214 l 218 954 l 367 954 l 479 1103 l 482 1103 l 597 954 z m 810 824 b 522 889 731 863 628 889 b 54 431 236 889 54 711 b 515 -21 54 139 238 -21 b 800 42 617 -21 732 4 l 754 238 b 525 167 689 194 610 167 b 276 436 368 167 276 271 b 524 701 276 600 374 701 b 743 639 601 701 678 678 z "},"ĉ":{"ha":672,"x_min":0,"x_max":0,"o":"m 635 732 l 469 992 l 275 992 l 110 732 l 258 732 l 371 881 l 374 881 l 489 732 z m 629 32 l 597 194 b 426 146 547 164 492 146 b 261 325 326 146 261 210 b 421 501 261 429 318 501 b 592 451 478 501 540 481 l 633 613 b 399 667 575 646 489 667 b 43 318 182 667 43 532 b 393 -21 43 99 179 -21 b 629 32 486 -21 575 -1 z "},"Ċ":{"ha":851,"x_min":0,"x_max":0,"o":"m 810 824 b 522 889 731 863 628 889 b 54 431 236 889 54 711 b 515 -21 54 139 238 -21 b 800 42 617 -21 732 4 l 754 238 b 525 167 689 194 610 167 b 276 436 368 167 276 271 b 524 701 276 600 374 701 b 743 639 601 701 678 678 z m 600 1058 b 483 1179 600 1122 556 1179 b 367 1058 414 1179 367 1122 b 483 938 367 992 414 938 b 600 1058 556 938 600 992 z "},"ċ":{"ha":672,"x_min":0,"x_max":0,"o":"m 629 32 l 597 194 b 426 146 547 164 492 146 b 261 325 326 146 261 210 b 421 501 261 429 318 501 b 592 451 478 501 540 481 l 633 613 b 399 667 575 646 489 667 b 43 318 182 667 43 532 b 393 -21 43 99 179 -21 b 629 32 486 -21 575 -1 z m 511 833 b 394 954 511 897 467 954 b 278 833 325 954 278 897 b 394 713 278 767 325 713 b 511 833 467 713 511 767 z "},"Č":{"ha":851,"x_min":0,"x_max":0,"o":"m 753 1214 l 604 1214 l 492 1064 l 489 1064 l 374 1214 l 228 1214 l 393 954 l 588 954 z m 810 824 b 522 889 731 863 628 889 b 54 431 236 889 54 711 b 515 -21 54 139 238 -21 b 800 42 617 -21 732 4 l 754 238 b 525 167 689 194 610 167 b 276 436 368 167 276 271 b 524 701 276 600 374 701 b 743 639 601 701 678 678 z "},"č":{"ha":672,"x_min":0,"x_max":0,"o":"m 629 992 l 481 992 l 368 842 l 365 842 l 250 992 l 104 992 l 269 732 l 464 732 z m 629 32 l 597 194 b 426 146 547 164 492 146 b 261 325 326 146 261 210 b 421 501 261 429 318 501 b 592 451 478 501 540 481 l 633 613 b 399 667 575 646 489 667 b 43 318 182 667 43 532 b 393 -21 43 99 179 -21 b 629 32 486 -21 575 -1 z "},"Ď":{"ha":946,"x_min":0,"x_max":0,"o":"m 669 1214 l 521 1214 l 408 1064 l 406 1064 l 290 1214 l 144 1214 l 310 954 l 504 954 z m 896 440 b 417 868 896 699 722 868 b 90 868 357 868 90 868 l 90 0 b 401 0 90 0 397 0 b 896 440 719 0 896 174 z m 674 432 b 414 176 674 258 574 176 l 311 176 l 311 692 l 403 692 b 674 432 583 692 674 611 z "},"ď":{"ha":1135,"x_min":0,"x_max":0,"o":"m 810 833 b 935 728 906 793 935 765 b 796 582 935 682 872 635 l 890 499 b 1125 782 1011 564 1125 654 b 958 958 1125 876 1056 958 b 810 833 879 958 818 908 z m 500 643 b 367 665 460 657 414 665 b 43 315 193 665 43 529 b 319 -19 43 111 160 -19 b 500 67 400 -19 460 25 b 500 0 500 60 500 0 l 714 0 l 714 944 l 500 918 z m 500 479 b 500 196 500 479 500 193 b 392 151 472 168 439 151 b 257 326 313 151 257 217 b 401 507 257 433 311 507 b 500 479 442 507 476 496 z "},"Ð":{"ha":994,"x_min":0,"x_max":0,"o":"m 357 524 l 357 692 l 431 692 b 719 432 611 692 719 611 b 442 176 719 258 601 176 l 357 176 l 357 354 l 533 354 l 533 524 z m 136 354 l 136 0 b 449 0 136 0 443 0 b 942 440 765 0 942 174 b 463 868 942 699 768 868 b 136 868 403 868 136 868 l 136 524 l 21 524 l 21 354 z "},"ð":{"ha":799,"x_min":0,"x_max":0,"o":"m 751 368 b 561 799 751 529 669 676 l 667 825 l 638 939 l 468 894 b 385 964 442 918 414 942 l 149 918 b 251 835 179 894 214 865 l 150 808 l 178 696 b 347 740 178 696 349 740 b 483 571 400 686 454 621 l 481 569 b 328 628 440 606 393 628 b 47 310 201 628 47 524 b 388 -21 47 107 190 -21 b 751 368 617 -21 751 150 z m 531 318 b 399 149 531 211 475 149 b 263 311 325 149 263 201 b 393 478 263 415 318 478 b 511 436 444 478 489 460 b 531 318 522 401 531 363 z "},"Đ":{"ha":994,"x_min":0,"x_max":0,"o":"m 357 524 l 357 692 l 431 692 b 719 432 611 692 719 611 b 442 176 719 258 601 176 l 357 176 l 357 354 l 533 354 l 533 524 z m 136 354 l 136 0 b 449 0 136 0 443 0 b 942 440 765 0 942 174 b 463 868 942 699 768 868 b 136 868 403 868 136 868 l 136 524 l 21 524 l 21 354 z "},"đ":{"ha":792,"x_min":0,"x_max":0,"o":"m 500 643 b 367 665 460 657 414 665 b 43 315 193 665 43 529 b 319 -19 43 111 160 -19 b 500 67 400 -19 460 25 l 500 0 l 714 0 l 714 706 l 799 708 l 785 828 l 714 828 l 714 944 l 500 918 l 500 828 l 340 828 l 325 708 l 500 708 z m 500 479 l 500 196 b 392 151 472 168 439 151 b 257 326 313 151 257 217 b 401 507 257 433 311 507 b 500 479 442 507 476 496 z "},"È":{"ha":785,"x_min":0,"x_max":0,"o":"m 725 0 l 725 178 l 307 178 l 307 347 l 643 347 l 643 524 l 307 524 l 307 690 l 725 690 l 725 868 l 90 868 l 90 0 z m 489 928 l 351 1185 l 121 1185 l 356 928 z "},"è":{"ha":718,"x_min":0,"x_max":0,"o":"m 454 732 l 317 989 l 86 989 l 321 732 z m 251 275 l 661 282 b 675 396 669 310 675 361 b 392 667 675 557 575 667 b 42 318 186 667 42 529 b 403 -19 42 103 183 -19 b 654 33 496 -19 589 0 l 633 199 b 422 136 568 161 493 136 b 251 272 318 136 258 186 z m 253 382 b 378 519 260 456 304 519 b 476 396 444 519 476 472 b 476 383 476 393 476 386 z "},"É":{"ha":785,"x_min":0,"x_max":0,"o":"m 725 0 l 725 178 l 307 178 l 307 347 l 643 347 l 643 524 l 307 524 l 307 690 l 725 690 l 725 868 l 90 868 l 90 0 z m 700 1185 l 469 1185 l 332 928 l 465 928 z "},"é":{"ha":718,"x_min":0,"x_max":0,"o":"m 251 275 l 661 282 b 675 396 669 310 675 361 b 392 667 675 557 575 667 b 42 318 186 667 42 529 b 403 -19 42 103 183 -19 b 654 33 496 -19 589 0 l 633 199 b 422 136 568 161 493 136 b 251 272 318 136 258 186 z m 253 382 b 378 519 260 456 304 519 b 476 396 444 519 476 472 b 476 383 476 393 476 386 z m 657 989 l 426 989 l 289 732 l 422 732 z "},"Ê":{"ha":785,"x_min":0,"x_max":0,"o":"m 725 0 l 725 178 l 307 178 l 307 347 l 643 347 l 643 524 l 307 524 l 307 690 l 725 690 l 725 868 l 90 868 l 90 0 z m 672 928 l 507 1188 l 313 1188 l 147 928 l 296 928 l 408 1076 l 411 1076 l 526 928 z "},"ê":{"ha":718,"x_min":0,"x_max":0,"o":"m 251 275 l 661 282 b 675 396 669 310 675 361 b 392 667 675 557 575 667 b 42 318 186 667 42 529 b 403 -19 42 103 183 -19 b 654 33 496 -19 589 0 l 633 199 b 422 136 568 161 493 136 b 251 272 318 136 258 186 z m 253 382 b 378 519 260 456 304 519 b 476 396 444 519 476 472 b 476 383 476 393 476 386 z m 622 732 l 457 992 l 263 992 l 97 732 l 246 732 l 358 881 l 361 881 l 476 732 z "},"Ë":{"ha":785,"x_min":0,"x_max":0,"o":"m 725 0 l 725 178 l 307 178 l 307 347 l 643 347 l 643 524 l 307 524 l 307 690 l 725 690 l 725 868 l 90 868 l 90 0 z m 682 1040 b 572 1147 682 1110 639 1147 b 463 1040 507 1147 463 1110 b 572 933 463 971 507 933 b 682 1040 639 933 682 971 z m 360 1040 b 249 1147 360 1110 314 1147 b 138 1040 183 1147 138 1110 b 249 933 138 971 183 933 b 360 1040 314 933 360 971 z "},"ë":{"ha":718,"x_min":0,"x_max":0,"o":"m 251 275 l 661 282 b 675 396 669 310 675 361 b 392 667 675 557 575 667 b 42 318 186 667 42 529 b 403 -19 42 103 183 -19 b 654 33 496 -19 589 0 l 633 199 b 422 136 568 161 493 136 b 251 272 318 136 258 186 z m 253 382 b 378 519 260 456 304 519 b 476 396 444 519 476 472 b 476 383 476 393 476 386 z m 642 835 b 532 942 642 904 599 942 b 422 835 467 942 422 904 b 532 728 422 765 467 728 b 642 835 599 728 642 765 z m 319 835 b 208 942 319 904 274 942 b 97 835 143 942 97 904 b 208 728 97 765 143 728 b 319 835 274 728 319 765 z "},"Ē":{"ha":785,"x_min":0,"x_max":0,"o":"m 725 0 l 725 178 l 307 178 l 307 347 l 643 347 l 643 524 l 307 524 l 307 690 l 725 690 l 725 868 l 90 868 l 90 0 z m 658 986 l 643 1107 l 168 1107 l 153 986 z "},"ē":{"ha":719,"x_min":0,"x_max":0,"o":"m 251 275 l 661 282 b 675 396 669 310 675 361 b 392 667 675 557 575 667 b 42 318 186 667 42 529 b 403 -19 42 103 183 -19 b 654 33 496 -19 589 0 l 633 199 b 422 136 568 161 493 136 b 251 272 318 136 258 186 z m 253 382 b 378 519 260 456 304 519 b 476 396 444 519 476 472 b 476 383 476 393 476 386 z m 618 763 l 603 883 l 128 883 l 113 763 z "},"Ĕ":{"ha":785,"x_min":0,"x_max":0,"o":"m 725 0 l 725 178 l 307 178 l 307 347 l 643 347 l 643 524 l 307 524 l 307 690 l 725 690 l 725 868 l 90 868 l 90 0 z m 676 1208 l 547 1207 b 424 1067 533 1124 494 1067 b 300 1207 354 1067 315 1124 l 171 1208 b 424 944 186 1025 303 944 b 676 1208 547 944 661 1025 z "},"ĕ":{"ha":719,"x_min":0,"x_max":0,"o":"m 251 275 l 661 282 b 675 396 669 310 675 361 b 392 667 675 557 575 667 b 42 318 186 667 42 529 b 403 -19 42 103 183 -19 b 654 33 496 -19 589 0 l 633 199 b 422 136 568 161 493 136 b 251 272 318 136 258 186 z m 253 382 b 378 519 260 456 304 519 b 476 396 444 519 476 472 b 476 383 476 393 476 386 z m 617 986 l 488 985 b 364 844 474 901 435 844 b 240 985 294 844 256 901 l 111 986 b 364 722 126 803 243 722 b 617 986 488 722 601 803 z "},"Ė":{"ha":785,"x_min":0,"x_max":0,"o":"m 725 0 l 725 178 l 307 178 l 307 347 l 643 347 l 643 524 l 307 524 l 307 690 l 725 690 l 725 868 l 90 868 l 90 0 z m 528 1056 b 411 1176 528 1119 483 1176 b 294 1056 342 1176 294 1119 b 411 935 294 989 342 935 b 528 1056 483 935 528 989 z "},"ė":{"ha":719,"x_min":0,"x_max":0,"o":"m 251 275 l 661 282 b 675 396 669 310 675 361 b 392 667 675 557 575 667 b 42 318 186 667 42 529 b 403 -19 42 103 183 -19 b 654 33 496 -19 589 0 l 633 199 b 422 136 568 161 493 136 b 251 272 318 136 258 186 z m 253 382 b 378 519 260 456 304 519 b 476 396 444 519 476 472 b 476 383 476 393 476 386 z m 482 833 b 365 954 482 897 438 954 b 249 833 296 954 249 897 b 365 713 249 767 296 713 b 482 833 438 713 482 767 z "},"Ę":{"ha":785,"x_min":0,"x_max":0,"o":"m 725 0 l 725 178 l 307 178 l 307 347 l 643 347 l 643 524 l 307 524 l 307 690 l 725 690 l 725 868 l 90 868 l 90 0 l 522 0 b 411 -164 460 -35 411 -92 b 579 -306 411 -251 478 -306 b 724 -268 644 -306 689 -290 l 694 -160 b 624 -178 676 -171 649 -178 b 564 -115 586 -178 564 -156 b 640 0 564 -72 592 -33 z "},"ę":{"ha":719,"x_min":0,"x_max":0,"o":"m 251 275 b 661 282 251 275 661 282 b 675 396 669 310 675 361 b 392 667 675 557 575 667 b 42 318 186 667 42 529 b 403 -19 42 103 183 -19 l 421 -19 b 340 -164 374 -54 340 -104 b 508 -306 340 -251 407 -306 b 653 -268 574 -306 618 -290 l 624 -160 b 553 -178 606 -171 578 -178 b 493 -115 515 -178 493 -156 b 654 33 493 -43 581 13 l 633 199 b 422 136 568 161 493 136 b 251 272 318 136 258 186 z m 253 382 b 378 519 260 456 304 519 b 476 396 444 519 476 472 b 476 383 476 393 476 386 z "},"Ě":{"ha":785,"x_min":0,"x_max":0,"o":"m 676 1214 l 528 1214 l 415 1064 l 413 1064 l 297 1214 l 151 1214 l 317 954 l 511 954 z m 725 0 l 725 178 l 307 178 l 307 347 l 643 347 l 643 524 l 307 524 l 307 690 l 725 690 l 725 868 l 90 868 l 90 0 z "},"ě":{"ha":719,"x_min":0,"x_max":0,"o":"m 626 992 l 478 992 l 365 842 l 363 842 l 247 992 l 101 992 l 267 732 l 461 732 z m 251 275 l 661 282 b 675 396 669 310 675 361 b 392 667 675 557 575 667 b 42 318 186 667 42 529 b 403 -19 42 103 183 -19 b 654 33 496 -19 589 0 l 633 199 b 422 136 568 161 493 136 b 251 272 318 136 258 186 z m 253 382 b 378 519 260 456 304 519 b 476 396 444 519 476 472 b 476 383 476 393 476 386 z "},"Ĝ":{"ha":935,"x_min":0,"x_max":0,"o":"m 751 954 l 586 1214 l 392 1214 l 226 954 l 375 954 l 488 1103 l 490 1103 l 606 954 z m 865 60 l 865 489 l 451 489 l 451 314 l 665 314 l 665 186 b 526 160 629 171 576 160 b 274 436 361 160 274 263 b 529 701 274 597 374 701 b 779 629 613 701 697 676 l 849 814 b 522 889 765 864 633 889 b 54 431 238 889 54 715 b 521 -21 54 144 243 -21 b 865 60 647 -21 771 8 z "},"ĝ":{"ha":733,"x_min":0,"x_max":0,"o":"m 608 732 l 443 992 l 249 992 l 83 732 l 232 732 l 344 881 l 347 881 l 463 732 z m 246 415 b 343 535 246 488 282 535 b 442 421 410 535 442 489 b 347 301 442 349 413 301 b 246 415 279 301 246 347 z m 236 -67 b 364 -71 260 -68 324 -71 b 531 -135 476 -71 531 -83 b 347 -222 531 -190 451 -222 b 185 -137 249 -222 185 -187 b 236 -67 185 -104 207 -81 z m 151 -43 b -3 -179 49 -56 -3 -115 b 313 -347 -3 -293 139 -347 b 717 -82 524 -347 717 -243 b 418 100 717 56 594 100 b 342 100 424 100 342 100 b 224 140 257 100 224 111 b 261 188 224 163 243 178 b 347 178 293 182 318 178 b 631 411 514 178 631 281 b 613 482 631 433 624 469 l 738 463 l 728 636 l 546 621 b 349 667 497 643 425 667 b 42 417 157 667 42 557 b 172 217 42 325 96 253 b 39 74 94 194 39 135 b 151 -43 39 14 94 -26 z "},"Ğ":{"ha":935,"x_min":0,"x_max":0,"o":"m 865 60 l 865 489 l 451 489 l 451 314 l 665 314 l 665 186 b 526 160 629 171 576 160 b 274 436 361 160 274 263 b 529 701 274 597 374 701 b 779 629 613 701 697 676 l 849 814 b 522 889 765 864 633 889 b 54 431 238 889 54 715 b 521 -21 54 144 243 -21 b 865 60 647 -21 771 8 z m 743 1208 l 614 1207 b 490 1067 600 1124 561 1067 b 367 1207 421 1067 382 1124 l 238 1208 b 490 944 253 1025 369 944 b 743 1208 614 944 728 1025 z "},"ğ":{"ha":733,"x_min":0,"x_max":0,"o":"m 246 415 b 343 535 246 488 282 535 b 442 421 410 535 442 489 b 347 301 442 349 413 301 b 246 415 279 301 246 347 z m 236 -67 b 364 -71 260 -68 324 -71 b 531 -135 476 -71 531 -83 b 347 -222 531 -190 451 -222 b 185 -137 249 -222 185 -187 b 236 -67 185 -104 207 -81 z m 151 -43 b -3 -179 49 -56 -3 -115 b 313 -347 -3 -293 139 -347 b 717 -82 524 -347 717 -243 b 418 100 717 56 594 100 b 342 100 424 100 342 100 b 224 140 257 100 224 111 b 261 188 224 163 243 178 b 347 178 293 182 318 178 b 631 411 514 178 631 281 b 613 482 631 433 624 469 l 738 463 l 728 636 l 546 621 b 349 667 497 643 425 667 b 42 417 157 667 42 557 b 172 217 42 325 96 253 b 39 74 94 194 39 135 b 151 -43 39 14 94 -26 z m 611 986 l 482 985 b 358 844 468 901 429 844 b 235 985 289 844 250 901 l 106 986 b 358 722 121 803 238 722 b 611 986 482 722 596 803 z "},"Ġ":{"ha":935,"x_min":0,"x_max":0,"o":"m 865 60 l 865 489 l 451 489 l 451 314 l 665 314 l 665 186 b 526 160 629 171 576 160 b 274 436 361 160 274 263 b 529 701 274 597 374 701 b 779 629 613 701 697 676 l 849 814 b 522 889 765 864 633 889 b 54 431 238 889 54 715 b 521 -21 54 144 243 -21 b 865 60 647 -21 771 8 z m 629 1056 b 513 1176 629 1119 585 1176 b 396 1056 443 1176 396 1119 b 513 935 396 989 443 935 b 629 1056 585 935 629 989 z "},"ġ":{"ha":733,"x_min":0,"x_max":0,"o":"m 246 415 b 343 535 246 488 282 535 b 442 421 410 535 442 489 b 347 301 442 349 413 301 b 246 415 279 301 246 347 z m 236 -67 b 364 -71 260 -68 324 -71 b 531 -135 476 -71 531 -83 b 347 -222 531 -190 451 -222 b 185 -137 249 -222 185 -187 b 236 -67 185 -104 207 -81 z m 151 -43 b -3 -179 49 -56 -3 -115 b 313 -347 -3 -293 139 -347 b 717 -82 524 -347 717 -243 b 418 100 717 56 594 100 b 342 100 424 100 342 100 b 224 140 257 100 224 111 b 261 188 224 163 243 178 b 347 178 293 182 318 178 b 631 411 514 178 631 281 b 613 482 631 433 624 469 l 738 463 l 728 636 l 546 621 b 349 667 497 643 425 667 b 42 417 157 667 42 557 b 172 217 42 325 96 253 b 39 74 94 194 39 135 b 151 -43 39 14 94 -26 z m 471 833 b 354 954 471 897 426 954 b 238 833 285 954 238 897 b 354 713 238 767 285 713 b 471 833 426 713 471 767 z "},"Ģ":{"ha":935,"x_min":0,"x_max":0,"o":"m 401 -169 b 490 -247 478 -193 490 -218 b 399 -347 490 -276 463 -311 l 446 -397 b 636 -196 564 -360 636 -286 b 510 -71 636 -122 583 -71 b 401 -169 447 -71 403 -117 z m 865 60 l 865 489 l 451 489 l 451 314 l 665 314 l 665 186 b 526 160 629 171 576 160 b 274 436 361 160 274 263 b 529 701 274 597 374 701 b 779 629 613 701 697 676 l 849 814 b 522 889 765 864 633 889 b 54 431 238 889 54 715 b 521 -21 54 144 243 -21 b 865 60 647 -21 771 8 z "},"ģ":{"ha":733,"x_min":0,"x_max":0,"o":"m 478 829 b 389 907 401 853 389 878 b 481 1007 389 936 417 971 l 433 1057 b 243 856 315 1019 243 946 b 369 731 243 782 296 731 b 478 829 432 731 476 776 z m 246 415 b 343 535 246 488 282 535 b 442 421 410 535 442 489 b 347 301 442 349 413 301 b 246 415 279 301 246 347 z m 236 -67 b 364 -71 260 -68 324 -71 b 531 -135 476 -71 531 -83 b 347 -222 531 -190 451 -222 b 185 -137 249 -222 185 -187 b 236 -67 185 -104 207 -81 z m 151 -43 b -3 -179 49 -56 -3 -115 b 313 -347 -3 -293 139 -347 b 717 -82 524 -347 717 -243 b 418 100 717 56 594 100 b 342 100 424 100 342 100 b 224 140 257 100 224 111 b 261 188 224 163 243 178 b 347 178 293 182 318 178 b 631 411 514 178 631 281 b 613 482 631 433 624 469 l 738 463 l 728 636 l 546 621 b 349 667 497 643 425 667 b 42 417 157 667 42 557 b 172 217 42 325 96 253 b 39 74 94 194 39 135 b 151 -43 39 14 94 -26 z "},"Ĥ":{"ha":971,"x_min":0,"x_max":0,"o":"m 749 954 l 583 1214 l 389 1214 l 224 954 l 372 954 l 485 1103 l 488 1103 l 603 954 z m 881 0 l 881 868 l 660 868 l 660 531 l 311 531 l 311 868 l 90 868 l 90 0 l 311 0 l 311 344 l 660 344 l 660 0 z "},"ĥ":{"ha":785,"x_min":0,"x_max":0,"o":"m 464 954 l 299 1214 l 104 1214 l -61 954 l 88 954 l 200 1103 l 203 1103 l 318 954 z m 713 0 l 713 444 b 508 667 713 582 636 667 b 290 557 424 667 347 622 b 290 944 290 568 290 944 l 76 918 l 76 0 l 290 0 l 290 436 b 410 485 318 461 360 485 b 499 382 464 485 499 460 l 499 0 z "},"Ħ":{"ha":971,"x_min":0,"x_max":0,"o":"m 881 0 l 881 629 l 979 629 l 964 749 l 881 749 l 881 868 l 660 868 l 660 749 l 311 749 l 311 868 l 90 868 l 90 749 l 1 749 l -14 629 l 90 629 l 90 0 l 311 0 l 311 344 l 660 344 l 660 0 z m 311 531 l 311 629 l 660 629 l 660 531 z "},"ħ":{"ha":785,"x_min":0,"x_max":0,"o":"m 713 0 l 713 444 b 508 667 713 582 636 667 b 290 557 424 667 347 622 l 290 708 l 465 708 l 450 828 l 290 828 l 290 944 l 76 918 l 76 828 l 6 828 l -8 708 l 76 708 l 76 0 l 290 0 l 290 436 b 410 485 318 461 360 485 b 499 382 464 485 499 460 l 499 0 z "},"Ì":{"ha":406,"x_min":0,"x_max":0,"o":"m 313 0 l 313 868 l 92 868 l 92 0 z m 276 928 l 139 1185 l -92 1185 l 143 928 z "},"ì":{"ha":367,"x_min":0,"x_max":0,"o":"m 272 732 l 135 989 l -96 989 l 139 732 z m 296 0 l 296 657 l 82 639 l 82 0 z "},"Í":{"ha":406,"x_min":0,"x_max":0,"o":"m 313 0 l 313 868 l 92 868 l 92 0 z m 490 1185 l 260 1185 l 122 928 l 256 928 z "},"í":{"ha":367,"x_min":0,"x_max":0,"o":"m 469 989 l 239 989 l 101 732 l 235 732 z m 296 0 l 296 657 l 82 639 l 82 0 z "},"Î":{"ha":406,"x_min":0,"x_max":0,"o":"m 313 0 l 313 868 l 92 868 l 92 0 z m 465 928 l 300 1188 l 106 1188 l -60 928 l 89 928 l 201 1076 l 204 1076 l 319 928 z "},"î":{"ha":367,"x_min":0,"x_max":0,"o":"m 296 0 l 296 657 l 82 639 l 82 0 z m 453 732 l 288 992 l 93 992 l -72 732 l 76 732 l 189 881 l 192 881 l 307 732 z "},"Ï":{"ha":406,"x_min":0,"x_max":0,"o":"m 313 0 l 313 868 l 92 868 l 92 0 z m 474 1040 b 364 1147 474 1110 431 1147 b 254 1040 299 1147 254 1110 b 364 933 254 971 299 933 b 474 1040 431 933 474 971 z m 151 1040 b 40 1147 151 1110 106 1147 b -71 1040 -25 1147 -71 1110 b 40 933 -71 971 -25 933 b 151 1040 106 933 151 971 z "},"ï":{"ha":367,"x_min":0,"x_max":0,"o":"m 461 835 b 351 942 461 904 418 942 b 242 835 286 942 242 904 b 351 728 242 765 286 728 b 461 835 418 728 461 765 z m 139 835 b 28 942 139 904 93 942 b -83 835 -37 942 -83 904 b 28 728 -83 765 -37 728 b 139 835 93 728 139 765 z m 296 0 l 296 657 l 82 639 l 82 0 z "},"Ī":{"ha":406,"x_min":0,"x_max":0,"o":"m 313 0 l 313 868 l 92 868 l 92 0 z m 415 983 l 403 1108 l 1 1108 l -11 983 z "},"ī":{"ha":367,"x_min":0,"x_max":0,"o":"m 296 0 l 296 657 l 82 639 l 82 0 z m 399 771 l 386 885 l -3 885 l -15 771 z "},"Ĭ":{"ha":406,"x_min":0,"x_max":0,"o":"m 313 0 l 313 868 l 92 868 l 92 0 z m 457 1208 l 328 1207 b 204 1067 314 1124 275 1067 b 81 1207 135 1067 96 1124 l -49 1208 b 204 944 -33 1025 83 944 b 457 1208 328 944 442 1025 z "},"ĭ":{"ha":367,"x_min":0,"x_max":0,"o":"m 296 0 l 296 657 l 82 639 l 82 0 z m 438 986 l 308 985 b 185 844 294 901 256 844 b 61 985 115 844 76 901 l -68 986 b 185 722 -53 803 64 722 b 438 986 308 722 422 803 z "},"Į":{"ha":406,"x_min":0,"x_max":0,"o":"m 194 -306 b 340 -268 260 -306 304 -290 l 310 -160 b 239 -178 292 -171 264 -178 b 179 -115 201 -178 179 -156 b 313 0 179 -71 243 -14 l 313 868 l 92 868 l 92 0 l 139 0 b 28 -164 75 -35 28 -92 b 194 -306 28 -251 94 -306 z "},"į":{"ha":367,"x_min":0,"x_max":0,"o":"m 169 -306 b 314 -268 235 -306 279 -290 l 285 -160 b 214 -178 267 -171 239 -178 b 154 -115 176 -178 154 -156 b 290 0 154 -54 210 -14 l 290 661 l 76 635 l 76 0 l 113 0 b 1 -164 49 -35 1 -92 b 169 -306 1 -251 68 -306 z m 310 851 b 183 967 310 926 263 967 b 58 851 106 967 58 926 b 183 738 58 778 106 738 b 310 851 263 738 310 778 z "},"İ":{"ha":406,"x_min":0,"x_max":0,"o":"m 313 0 l 313 868 l 92 868 l 92 0 z m 321 1056 b 204 1176 321 1119 276 1176 b 88 1056 135 1176 88 1119 b 204 935 88 989 135 935 b 321 1056 276 935 321 989 z "},"ı":{"ha":367,"x_min":0,"x_max":0,"o":"m 296 0 l 296 657 l 82 639 l 82 0 z "},"Ĵ":{"ha":654,"x_min":0,"x_max":0,"o":"m 721 954 l 556 1214 l 361 1214 l 196 954 l 344 954 l 457 1103 l 460 1103 l 575 954 z m 571 306 l 571 868 l 350 868 l 350 322 b 225 163 350 210 315 163 b 57 217 171 163 115 183 l 13 39 b 260 -21 72 6 165 -21 b 571 306 474 -21 571 100 z "},"ĵ":{"ha":365,"x_min":0,"x_max":0,"o":"m 85 -336 b 290 15 236 -283 290 -175 b 290 661 290 8 290 661 l 76 635 b 76 29 76 635 76 8 b -37 -192 76 -108 42 -154 z m 447 732 l 282 992 l 88 992 l -78 732 l 71 732 l 183 881 l 186 881 l 301 732 z "},"ȷ":{"ha":365,"x_min":0,"x_max":0,"o":"m 85 -336 b 290 15 236 -283 290 -175 b 290 661 290 8 290 661 l 76 635 b 76 29 76 635 76 8 b -37 -192 76 -108 42 -154 z "},"Ķ":{"ha":868,"x_min":0,"x_max":0,"o":"m 336 -169 b 425 -247 413 -193 425 -218 b 333 -347 425 -276 397 -311 l 381 -397 b 571 -196 499 -360 571 -286 b 444 -71 571 -122 518 -71 b 336 -169 382 -71 338 -117 z m 311 485 l 311 868 l 90 868 l 90 0 l 311 0 b 311 382 311 0 311 357 l 313 382 l 599 0 l 863 0 l 511 444 l 854 868 l 601 868 l 313 485 z "},"ķ":{"ha":739,"x_min":0,"x_max":0,"o":"m 269 -169 b 358 -247 346 -193 358 -218 b 267 -347 358 -276 331 -311 l 314 -397 b 504 -196 432 -360 504 -286 b 378 -71 504 -122 451 -71 b 269 -169 315 -71 271 -117 z m 292 303 l 493 0 l 736 0 l 497 339 l 735 646 l 489 646 l 292 368 l 290 368 l 290 944 l 76 918 l 76 0 l 290 0 l 290 303 z "},"Ĺ":{"ha":722,"x_min":0,"x_max":0,"o":"m 471 1211 l 240 1211 l 103 954 l 236 954 z m 675 0 l 675 185 l 311 185 l 311 868 l 90 868 l 90 0 z "},"ĺ":{"ha":367,"x_min":0,"x_max":0,"o":"m 451 1225 l 221 1225 l 83 968 l 217 968 z m 290 0 l 290 944 l 76 918 l 76 0 z "},"Ļ":{"ha":722,"x_min":0,"x_max":0,"o":"m 260 -169 b 349 -247 336 -193 349 -218 b 257 -347 349 -276 321 -311 l 304 -397 b 494 -196 422 -360 494 -286 b 368 -71 494 -122 442 -71 b 260 -169 306 -71 261 -117 z m 675 0 l 675 185 l 311 185 l 311 868 l 90 868 l 90 0 z "},"ļ":{"ha":367,"x_min":0,"x_max":0,"o":"m 65 -169 b 154 -247 142 -193 154 -218 b 63 -347 154 -276 126 -311 l 110 -397 b 300 -196 228 -360 300 -286 b 174 -71 300 -122 247 -71 b 65 -169 111 -71 67 -117 z m 290 0 l 290 944 l 76 918 l 76 0 z "},"Ľ":{"ha":910,"x_min":0,"x_max":0,"o":"m 653 761 b 778 656 749 721 778 693 b 639 510 778 610 715 563 l 733 426 b 968 710 854 492 968 582 b 801 886 968 804 899 886 b 653 761 722 886 661 836 z m 675 0 l 675 185 l 311 185 l 311 868 l 90 868 l 90 0 z "},"ľ":{"ha":744,"x_min":0,"x_max":0,"o":"m 418 836 b 543 731 514 796 543 768 b 404 585 543 685 481 638 l 499 501 b 733 785 619 567 733 657 b 567 961 733 879 664 961 b 418 836 488 961 426 911 z m 290 0 l 290 944 l 76 918 l 76 0 z "},"Ŀ":{"ha":864,"x_min":0,"x_max":0,"o":"m 675 0 l 675 185 l 311 185 l 311 868 l 90 868 l 90 0 z m 957 432 b 826 558 957 508 904 558 b 694 432 747 558 694 508 b 826 306 694 357 747 306 b 957 432 904 306 957 357 z "},"ŀ":{"ha":685,"x_min":0,"x_max":0,"o":"m 290 0 l 290 944 l 76 918 l 76 0 z m 690 432 b 560 558 690 508 638 558 b 428 432 481 558 428 508 b 560 306 428 357 481 306 b 690 432 638 306 690 357 z "},"Ł":{"ha":767,"x_min":0,"x_max":0,"o":"m 358 367 l 554 419 l 554 588 l 358 535 l 358 868 l 138 868 l 138 475 l 24 444 l 24 276 l 138 307 l 138 0 l 722 0 l 722 186 l 358 186 z "},"ł":{"ha":458,"x_min":0,"x_max":0,"o":"m 338 364 l 435 390 l 435 560 l 338 533 l 338 944 l 124 918 l 124 476 l 28 450 l 28 281 l 124 307 l 124 0 l 338 0 z "},"Ñ":{"ha":988,"x_min":0,"x_max":0,"o":"m 690 304 l 329 868 l 90 868 l 90 0 l 297 0 l 297 563 l 663 -8 l 897 -8 l 897 868 l 690 868 z m 761 1144 b 633 1144 767 1144 639 1144 b 590 1074 626 1089 614 1074 b 379 1153 546 1074 467 1153 b 228 942 297 1153 244 1107 b 354 942 221 942 349 942 b 399 1011 361 997 375 1011 b 608 932 442 1011 522 932 b 761 1144 690 932 744 978 z "},"ñ":{"ha":785,"x_min":0,"x_max":0,"o":"m 713 0 l 713 444 b 507 667 713 582 636 667 b 290 556 424 667 347 621 b 290 661 290 565 290 661 l 76 635 l 76 0 l 290 0 l 290 436 b 407 485 318 461 360 485 b 499 382 464 485 499 460 l 499 0 z m 660 949 b 532 949 665 949 538 949 b 489 878 525 893 513 878 b 278 957 444 878 365 957 b 126 746 196 957 143 911 b 253 746 119 746 247 746 b 297 815 260 801 274 815 b 507 736 340 815 421 736 b 660 949 589 736 643 782 z "},"Ń":{"ha":988,"x_min":0,"x_max":0,"o":"m 768 1211 l 538 1211 l 400 954 l 533 954 z m 690 304 l 329 868 l 90 868 l 90 0 l 297 0 l 297 563 l 663 -8 l 897 -8 l 897 868 l 690 868 z "},"ń":{"ha":785,"x_min":0,"x_max":0,"o":"m 621 989 l 390 989 l 253 732 l 386 732 z m 713 0 l 713 444 b 507 667 713 582 636 667 b 290 556 424 667 347 621 b 290 661 290 565 290 661 l 76 635 l 76 0 l 290 0 l 290 436 b 407 485 318 461 360 485 b 499 382 464 485 499 460 l 499 0 z "},"Ņ":{"ha":988,"x_min":0,"x_max":0,"o":"m 389 -169 b 478 -247 465 -193 478 -218 b 386 -347 478 -276 450 -311 l 433 -397 b 624 -196 551 -360 624 -286 b 497 -71 624 -122 571 -71 b 389 -169 435 -71 390 -117 z m 690 304 l 329 868 l 90 868 l 90 0 l 297 0 l 297 563 l 663 -8 l 897 -8 l 897 868 l 690 868 z "},"ņ":{"ha":785,"x_min":0,"x_max":0,"o":"m 279 -169 b 368 -247 356 -193 368 -218 b 276 -347 368 -276 340 -311 l 324 -397 b 514 -196 442 -360 514 -286 b 388 -71 514 -122 461 -71 b 279 -169 325 -71 281 -117 z m 713 0 l 713 444 b 507 667 713 582 636 667 b 290 556 424 667 347 621 b 290 661 290 565 290 661 l 76 635 l 76 0 l 290 0 l 290 436 b 407 485 318 461 360 485 b 499 382 464 485 499 460 l 499 0 z "},"Ň":{"ha":988,"x_min":0,"x_max":0,"o":"m 768 1214 l 619 1214 l 507 1064 l 504 1064 l 389 1214 l 243 1214 l 408 954 l 603 954 z m 690 304 l 329 868 l 90 868 l 90 0 l 297 0 l 297 563 l 663 -8 l 897 -8 l 897 868 l 690 868 z "},"ň":{"ha":785,"x_min":0,"x_max":0,"o":"m 646 992 l 497 992 l 385 842 l 382 842 l 267 992 l 121 992 l 286 732 l 481 732 z m 713 0 l 713 444 b 507 667 713 582 636 667 b 290 556 424 667 347 621 b 290 661 290 565 290 661 l 76 635 l 76 0 l 290 0 l 290 436 b 407 485 318 461 360 485 b 499 382 464 485 499 460 l 499 0 z "},"Ò":{"ha":1018,"x_min":0,"x_max":0,"o":"m 964 438 b 510 889 964 731 768 889 b 54 432 251 889 54 707 b 507 -21 54 139 250 -21 b 964 438 765 -21 964 163 z m 742 432 b 511 157 742 269 657 157 b 276 438 363 157 276 271 b 507 711 276 600 360 711 b 742 432 654 711 742 599 z m 583 936 l 446 1193 l 215 1193 l 450 936 z "},"ò":{"ha":776,"x_min":0,"x_max":0,"o":"m 490 732 l 353 989 l 122 989 l 357 732 z m 735 325 b 393 667 735 542 588 667 b 42 321 197 667 42 540 b 385 -21 42 101 190 -21 b 735 325 578 -21 735 108 z m 522 324 b 389 143 522 213 476 143 b 254 322 301 143 254 213 b 388 504 254 433 300 504 b 522 324 475 504 522 432 z "},"Ó":{"ha":1018,"x_min":0,"x_max":0,"o":"m 964 438 b 510 889 964 731 768 889 b 54 432 251 889 54 707 b 507 -21 54 139 250 -21 b 964 438 765 -21 964 163 z m 742 432 b 511 157 742 269 657 157 b 276 438 363 157 276 271 b 507 711 276 600 360 711 b 742 432 654 711 742 599 z m 803 1193 l 572 1193 l 435 936 l 568 936 z "},"ó":{"ha":776,"x_min":0,"x_max":0,"o":"m 735 325 b 393 667 735 542 588 667 b 42 321 197 667 42 540 b 385 -21 42 101 190 -21 b 735 325 578 -21 735 108 z m 522 324 b 389 143 522 213 476 143 b 254 322 301 143 254 213 b 388 504 254 433 300 504 b 522 324 475 504 522 432 z m 665 989 l 435 989 l 297 732 l 431 732 z "},"Ô":{"ha":1018,"x_min":0,"x_max":0,"o":"m 964 438 b 510 889 964 731 768 889 b 54 432 251 889 54 707 b 507 -21 54 139 250 -21 b 964 438 765 -21 964 163 z m 742 432 b 511 157 742 269 657 157 b 276 438 363 157 276 271 b 507 711 276 600 360 711 b 742 432 654 711 742 599 z m 772 928 l 607 1188 l 413 1188 l 247 928 l 396 928 l 508 1076 l 511 1076 l 626 928 z "},"ô":{"ha":776,"x_min":0,"x_max":0,"o":"m 735 325 b 393 667 735 542 588 667 b 42 321 197 667 42 540 b 385 -21 42 101 190 -21 b 735 325 578 -21 735 108 z m 522 324 b 389 143 522 213 476 143 b 254 322 301 143 254 213 b 388 504 254 433 300 504 b 522 324 475 504 522 432 z m 657 732 l 492 992 l 297 992 l 132 732 l 281 732 l 393 881 l 396 881 l 511 732 z "},"Õ":{"ha":1018,"x_min":0,"x_max":0,"o":"m 964 438 b 510 889 964 731 768 889 b 54 432 251 889 54 707 b 507 -21 54 139 250 -21 b 964 438 765 -21 964 163 z m 742 432 b 511 157 742 269 657 157 b 276 438 363 157 276 271 b 507 711 276 600 360 711 b 742 432 654 711 742 599 z m 776 1144 b 649 1144 782 1144 654 1144 b 606 1074 642 1089 629 1074 b 394 1153 561 1074 482 1153 b 243 942 313 1153 260 1107 b 369 942 236 942 364 942 b 414 1011 376 997 390 1011 b 624 932 457 1011 538 932 b 776 1144 706 932 760 978 z "},"õ":{"ha":776,"x_min":0,"x_max":0,"o":"m 735 325 b 393 667 735 542 588 667 b 42 321 197 667 42 540 b 385 -21 42 101 190 -21 b 735 325 578 -21 735 108 z m 522 324 b 389 143 522 213 476 143 b 254 322 301 143 254 213 b 388 504 254 433 300 504 b 522 324 475 504 522 432 z m 660 949 b 532 949 665 949 538 949 b 489 878 525 893 513 878 b 278 957 444 878 365 957 b 126 746 196 957 143 911 b 253 746 119 746 247 746 b 297 815 260 801 274 815 b 507 736 340 815 421 736 b 660 949 589 736 643 782 z "},"Ö":{"ha":1018,"x_min":0,"x_max":0,"o":"m 964 438 b 510 889 964 731 768 889 b 54 432 251 889 54 707 b 507 -21 54 139 250 -21 b 964 438 765 -21 964 163 z m 742 432 b 511 157 742 269 657 157 b 276 438 363 157 276 271 b 507 711 276 600 360 711 b 742 432 654 711 742 599 z m 781 1040 b 671 1147 781 1110 738 1147 b 561 1040 606 1147 561 1110 b 671 933 561 971 606 933 b 781 1040 738 933 781 971 z m 458 1040 b 347 1147 458 1110 413 1147 b 236 1040 282 1147 236 1110 b 347 933 236 971 282 933 b 458 1040 413 933 458 971 z "},"ö":{"ha":776,"x_min":0,"x_max":0,"o":"m 735 325 b 393 667 735 542 588 667 b 42 321 197 667 42 540 b 385 -21 42 101 190 -21 b 735 325 578 -21 735 108 z m 522 324 b 389 143 522 213 476 143 b 254 322 301 143 254 213 b 388 504 254 433 300 504 b 522 324 475 504 522 432 z m 665 835 b 556 942 665 904 622 942 b 446 835 490 942 446 904 b 556 728 446 765 490 728 b 665 835 622 728 665 765 z m 343 835 b 232 942 343 904 297 942 b 121 835 167 942 121 904 b 232 728 121 765 167 728 b 343 835 297 728 343 765 z "},"Ō":{"ha":1018,"x_min":0,"x_max":0,"o":"m 760 985 l 744 1106 l 269 1106 l 254 985 z m 964 438 b 510 889 964 731 768 889 b 54 432 251 889 54 707 b 507 -21 54 139 250 -21 b 964 438 765 -21 964 163 z m 742 432 b 511 157 742 269 657 157 b 276 438 363 157 276 271 b 507 711 276 600 360 711 b 742 432 654 711 742 599 z "},"ō":{"ha":776,"x_min":0,"x_max":0,"o":"m 639 763 l 624 883 l 149 883 l 133 763 z m 735 325 b 393 667 735 542 588 667 b 42 321 197 667 42 540 b 385 -21 42 101 190 -21 b 735 325 578 -21 735 108 z m 522 324 b 389 143 522 213 476 143 b 254 322 301 143 254 213 b 388 504 254 433 300 504 b 522 324 475 504 522 432 z "},"Ŏ":{"ha":1018,"x_min":0,"x_max":0,"o":"m 964 438 b 510 889 964 731 768 889 b 54 432 251 889 54 707 b 507 -21 54 139 250 -21 b 964 438 765 -21 964 163 z m 742 432 b 511 157 742 269 657 157 b 276 438 363 157 276 271 b 507 711 276 600 360 711 b 742 432 654 711 742 599 z m 756 1208 l 626 1207 b 503 1067 613 1124 574 1067 b 379 1207 433 1067 394 1124 l 250 1208 b 503 944 265 1025 382 944 b 756 1208 626 944 740 1025 z "},"ŏ":{"ha":776,"x_min":0,"x_max":0,"o":"m 735 325 b 393 667 735 542 588 667 b 42 321 197 667 42 540 b 385 -21 42 101 190 -21 b 735 325 578 -21 735 108 z m 522 324 b 389 143 522 213 476 143 b 254 322 301 143 254 213 b 388 504 254 433 300 504 b 522 324 475 504 522 432 z m 628 986 l 499 985 b 375 844 485 901 446 844 b 251 985 306 844 267 901 l 122 986 b 375 722 138 803 254 722 b 628 986 499 722 613 803 z "},"Ő":{"ha":1018,"x_min":0,"x_max":0,"o":"m 919 1199 l 722 1199 l 524 944 l 663 944 z m 614 1199 l 417 1199 l 246 944 l 389 944 z m 964 438 b 510 889 964 731 768 889 b 54 432 251 889 54 707 b 507 -21 54 139 250 -21 b 964 438 765 -21 964 163 z m 742 432 b 511 157 742 269 657 157 b 276 438 363 157 276 271 b 507 711 276 600 360 711 b 742 432 654 711 742 599 z "},"ő":{"ha":776,"x_min":0,"x_max":0,"o":"m 789 986 l 592 986 l 393 732 l 532 732 z m 483 986 l 286 986 l 115 732 l 258 732 z m 735 325 b 393 667 735 542 588 667 b 42 321 197 667 42 540 b 385 -21 42 101 190 -21 b 735 325 578 -21 735 108 z m 522 324 b 389 143 522 213 476 143 b 254 322 301 143 254 213 b 388 504 254 433 300 504 b 522 324 475 504 522 432 z "},"Ø":{"ha":1018,"x_min":0,"x_max":0,"o":"m 965 438 b 779 817 965 615 893 743 l 864 961 l 764 961 b 701 856 764 961 703 856 b 511 889 644 878 581 889 b 56 432 253 889 56 707 b 235 56 56 257 125 131 l 147 -93 l 247 -93 l 311 15 b 508 -21 371 -8 438 -21 b 965 438 767 -21 965 163 z m 608 690 l 344 232 b 276 438 300 281 276 351 b 508 711 276 600 361 711 b 608 690 544 711 578 704 z m 672 643 b 743 432 718 594 743 521 b 513 157 743 269 658 157 b 406 182 472 157 436 165 z "},"ø":{"ha":776,"x_min":0,"x_max":0,"o":"m 740 322 b 611 601 740 447 690 544 l 686 731 l 586 731 l 533 643 b 399 667 493 658 447 667 b 49 322 200 667 49 538 b 181 42 49 196 99 100 l 103 -93 l 204 -93 l 258 1 b 392 -21 300 -12 344 -21 b 740 322 588 -21 740 108 z m 457 506 l 281 201 b 253 328 261 242 253 281 b 390 525 253 449 303 525 b 457 506 415 525 436 519 z m 536 321 b 399 125 536 201 486 125 b 338 139 376 125 358 131 l 511 443 b 536 321 528 403 536 364 z "},"Ǿ":{"ha":1018,"x_min":0,"x_max":0,"o":"m 965 438 b 779 817 965 615 893 743 l 864 961 l 764 961 b 701 856 764 961 703 856 b 511 889 644 878 581 889 b 56 432 253 889 56 707 b 235 56 56 257 125 131 l 147 -93 l 247 -93 l 311 15 b 508 -21 371 -8 438 -21 b 965 438 767 -21 965 163 z m 608 690 l 344 232 b 276 438 300 281 276 351 b 508 711 276 600 361 711 b 608 690 544 711 578 704 z m 672 643 b 743 432 718 594 743 521 b 513 157 743 269 658 157 b 406 182 472 157 436 165 z m 781 1193 l 550 1193 l 413 936 l 546 936 z "},"ǿ":{"ha":776,"x_min":0,"x_max":0,"o":"m 740 322 b 611 601 740 447 690 544 l 686 731 l 586 731 l 533 643 b 399 667 493 658 447 667 b 49 322 200 667 49 538 b 181 42 49 196 99 100 l 103 -93 l 204 -93 l 258 1 b 392 -21 300 -12 344 -21 b 740 322 588 -21 740 108 z m 457 506 l 281 201 b 253 328 261 242 253 281 b 390 525 253 449 303 525 b 457 506 415 525 436 519 z m 536 321 b 399 125 536 201 486 125 b 338 139 376 125 358 131 l 511 443 b 536 321 528 403 536 364 z m 649 989 l 418 989 l 281 732 l 414 732 z "},"Œ":{"ha":1332,"x_min":0,"x_max":0,"o":"m 1279 868 l 540 868 b 56 428 222 868 56 694 b 535 0 56 169 228 0 l 1279 0 l 1279 178 l 865 178 l 865 347 l 1207 347 l 1207 524 l 865 524 l 865 690 l 1279 690 z m 276 436 b 538 692 276 610 376 692 l 644 692 l 644 176 l 549 176 b 276 436 368 176 276 257 z "},"œ":{"ha":1171,"x_min":0,"x_max":0,"o":"m 704 382 b 829 519 711 456 756 519 b 928 396 897 519 928 472 b 928 383 928 393 928 386 z m 254 322 b 388 504 254 433 300 504 b 522 324 475 504 522 432 b 389 143 522 213 476 143 b 254 322 301 143 254 213 z m 614 67 b 854 -19 675 11 746 -19 b 1106 33 949 -19 1040 0 l 1085 199 b 874 136 1019 161 944 136 b 703 272 769 136 711 186 l 703 275 l 1113 282 b 1126 396 1121 310 1126 361 b 844 667 1126 557 1029 667 b 617 582 753 667 674 635 b 393 667 561 636 483 667 b 42 321 197 667 42 540 b 385 -21 42 101 190 -21 b 614 67 475 -21 556 10 z "},"Þ":{"ha":822,"x_min":0,"x_max":0,"o":"m 782 446 b 411 747 782 624 654 747 l 311 747 l 311 868 l 90 868 l 90 0 l 311 0 l 311 131 l 396 131 b 782 446 644 132 782 242 z m 563 440 b 393 301 563 351 507 304 l 306 300 l 306 572 b 394 572 306 572 374 572 b 563 440 506 572 563 526 z "},"þ":{"ha":792,"x_min":0,"x_max":0,"o":"m 290 1 b 424 -19 331 -11 381 -19 b 747 331 599 -19 747 117 b 468 667 747 536 631 667 b 290 582 389 667 331 621 l 290 944 l 76 918 l 76 -293 l 290 -293 z m 290 451 b 399 496 319 478 351 496 b 533 319 486 496 533 431 b 389 140 533 213 481 140 b 290 167 349 140 315 150 b 290 451 290 167 290 453 z "},"Ŕ":{"ha":857,"x_min":0,"x_max":0,"o":"m 628 1211 l 397 1211 l 260 954 l 393 954 z m 311 283 l 413 292 l 586 0 l 835 0 l 613 343 b 790 593 729 388 790 476 b 439 868 790 761 669 868 b 90 868 447 868 90 868 l 90 0 l 311 0 z m 307 447 l 307 693 b 400 693 307 693 396 693 b 564 579 511 693 564 656 b 418 450 564 496 513 457 z "},"ŕ":{"ha":557,"x_min":0,"x_max":0,"o":"m 571 989 l 340 989 l 203 732 l 336 732 z m 290 376 b 429 471 329 444 376 471 b 510 451 457 471 485 464 l 553 640 b 446 667 518 658 481 667 b 290 567 378 667 328 632 l 290 661 l 76 635 l 76 0 l 290 0 z "},"Ŗ":{"ha":857,"x_min":0,"x_max":0,"o":"m 303 -169 b 392 -247 379 -193 392 -218 b 300 -347 392 -276 364 -311 l 347 -397 b 538 -196 465 -360 538 -286 b 411 -71 538 -122 485 -71 b 303 -169 349 -71 304 -117 z m 311 283 l 413 292 l 586 0 l 835 0 l 613 343 b 790 593 729 388 790 476 b 439 868 790 761 669 868 b 90 868 447 868 90 868 l 90 0 l 311 0 z m 307 447 l 307 693 b 400 693 307 693 396 693 b 564 579 511 693 564 656 b 418 450 564 496 513 457 z "},"ŗ":{"ha":557,"x_min":0,"x_max":0,"o":"m 72 -169 b 161 -247 149 -193 161 -218 b 69 -347 161 -276 133 -311 l 117 -397 b 307 -196 235 -360 307 -286 b 181 -71 307 -122 254 -71 b 72 -169 118 -71 74 -117 z m 290 376 b 429 471 329 444 376 471 b 510 451 457 471 485 464 l 553 640 b 446 667 518 658 481 667 b 290 567 378 667 328 632 l 290 661 l 76 635 l 76 0 l 290 0 z "},"Ř":{"ha":857,"x_min":0,"x_max":0,"o":"m 653 1214 l 504 1214 l 392 1064 l 389 1064 l 274 1214 l 128 1214 l 293 954 l 488 954 z m 311 283 l 413 292 l 586 0 l 835 0 l 613 343 b 790 593 729 388 790 476 b 439 868 790 761 669 868 b 90 868 447 868 90 868 l 90 0 l 311 0 z m 307 447 l 307 693 b 400 693 307 693 396 693 b 564 579 511 693 564 656 b 418 450 564 496 513 457 z "},"ř":{"ha":557,"x_min":0,"x_max":0,"o":"m 565 992 l 417 992 l 304 842 l 301 842 l 186 992 l 40 992 l 206 732 l 400 732 z m 290 376 b 429 471 329 444 376 471 b 510 451 457 471 485 464 l 553 640 b 446 667 518 658 481 667 b 290 567 378 667 328 632 l 290 661 l 76 635 l 76 0 l 290 0 z "},"Ś":{"ha":783,"x_min":0,"x_max":0,"o":"m 635 1211 l 404 1211 l 267 954 l 400 954 z m 379 161 b 82 242 272 161 168 196 l 40 58 b 375 -21 121 13 246 -21 b 731 261 603 -21 731 96 b 458 524 731 426 592 488 b 275 632 354 553 275 575 b 389 706 275 679 313 706 b 669 629 475 706 583 675 l 713 811 b 388 888 629 857 524 888 b 54 619 172 888 54 781 b 333 353 54 446 207 388 b 511 243 449 321 511 301 b 379 161 511 190 457 161 z "},"ś":{"ha":639,"x_min":0,"x_max":0,"o":"m 589 989 l 358 989 l 221 732 l 354 732 z m 600 192 b 357 404 600 321 510 371 b 246 468 286 419 246 433 b 325 517 246 500 274 517 b 547 458 386 517 474 494 l 590 611 b 328 667 526 642 414 667 b 43 460 149 667 43 581 b 289 249 43 333 139 278 b 399 182 363 232 399 218 b 311 129 399 149 368 129 b 75 190 236 129 150 151 l 33 36 b 307 -21 101 0 218 -21 b 600 192 497 -21 600 75 z "},"Ŝ":{"ha":783,"x_min":0,"x_max":0,"o":"m 664 954 l 499 1214 l 304 1214 l 139 954 l 288 954 l 400 1103 l 403 1103 l 518 954 z m 379 161 b 82 242 272 161 168 196 l 40 58 b 375 -21 121 13 246 -21 b 731 261 603 -21 731 96 b 458 524 731 426 592 488 b 275 632 354 553 275 575 b 389 706 275 679 313 706 b 669 629 475 706 583 675 l 713 811 b 388 888 629 857 524 888 b 54 619 172 888 54 781 b 333 353 54 446 207 388 b 511 243 449 321 511 301 b 379 161 511 190 457 161 z "},"ŝ":{"ha":639,"x_min":0,"x_max":0,"o":"m 594 732 l 429 992 l 235 992 l 69 732 l 218 732 l 331 881 l 333 881 l 449 732 z m 600 192 b 357 404 600 321 510 371 b 246 468 286 419 246 433 b 325 517 246 500 274 517 b 547 458 386 517 474 494 l 590 611 b 328 667 526 642 414 667 b 43 460 149 667 43 581 b 289 249 43 333 139 278 b 399 182 363 232 399 218 b 311 129 399 149 368 129 b 75 190 236 129 150 151 l 33 36 b 307 -21 101 0 218 -21 b 600 192 497 -21 600 75 z "},"Ş":{"ha":783,"x_min":0,"x_max":0,"o":"m 376 -71 b 436 -18 388 -60 411 -40 b 731 261 625 1 731 111 b 458 524 731 426 592 488 b 275 632 354 553 275 575 b 389 706 275 679 313 706 b 669 629 475 706 583 675 l 713 811 b 388 888 629 857 524 888 b 54 619 172 888 54 781 b 333 353 54 446 207 388 b 511 243 449 321 511 301 b 379 161 511 190 457 161 b 82 242 272 161 168 196 l 40 58 b 331 -19 111 18 217 -12 l 253 -92 l 267 -162 b 428 -222 374 -154 428 -171 b 265 -294 428 -262 385 -289 l 276 -393 b 553 -208 471 -369 553 -301 b 376 -71 553 -122 471 -75 z "},"ş":{"ha":639,"x_min":0,"x_max":0,"o":"m 303 -71 b 361 -18 314 -60 336 -40 b 600 192 517 -1 600 86 b 357 404 600 321 510 371 b 246 468 286 419 246 433 b 325 517 246 500 274 517 b 547 458 386 517 474 494 l 590 611 b 328 667 526 642 414 667 b 43 460 149 667 43 581 b 289 249 43 333 139 278 b 399 182 363 232 399 218 b 311 129 399 149 368 129 b 75 190 236 129 150 151 l 33 36 b 257 -18 89 6 178 -12 l 179 -92 l 193 -162 b 354 -222 300 -154 354 -171 b 192 -294 354 -262 311 -289 l 203 -393 b 479 -208 397 -369 479 -301 b 303 -71 479 -122 397 -75 z "},"Ș":{"ha":783,"x_min":0,"x_max":0,"o":"m 279 -169 b 368 -247 356 -193 368 -218 b 276 -347 368 -276 340 -311 l 324 -397 b 514 -196 442 -360 514 -286 b 388 -71 514 -122 461 -71 b 279 -169 325 -71 281 -117 z m 379 161 b 82 242 272 161 168 196 l 40 58 b 375 -21 121 13 246 -21 b 731 261 603 -21 731 96 b 458 524 731 426 592 488 b 275 632 354 553 275 575 b 389 706 275 679 313 706 b 669 629 475 706 583 675 l 713 811 b 388 888 629 857 524 888 b 54 619 172 888 54 781 b 333 353 54 446 207 388 b 511 243 449 321 511 301 b 379 161 511 190 457 161 z "},"ș":{"ha":639,"x_min":0,"x_max":0,"o":"m 203 -169 b 292 -247 279 -193 292 -218 b 200 -347 292 -276 264 -311 l 247 -397 b 438 -196 365 -360 438 -286 b 311 -71 438 -122 385 -71 b 203 -169 249 -71 204 -117 z m 600 192 b 357 404 600 321 510 371 b 246 468 286 419 246 433 b 325 517 246 500 274 517 b 547 458 386 517 474 494 l 590 611 b 328 667 526 642 414 667 b 43 460 149 667 43 581 b 289 249 43 333 139 278 b 399 182 363 232 399 218 b 311 129 399 149 368 129 b 75 190 236 129 150 151 l 33 36 b 307 -21 101 0 218 -21 b 600 192 497 -21 600 75 z "},"Š":{"ha":783,"x_min":0,"x_max":0,"o":"m 379 161 b 82 242 272 161 168 196 l 40 58 b 375 -21 121 13 246 -21 b 731 261 603 -21 731 96 b 458 524 731 426 592 488 b 275 632 354 553 275 575 b 389 706 275 679 313 706 b 669 629 475 706 583 675 l 713 811 b 388 888 629 857 524 888 b 54 619 172 888 54 781 b 333 353 54 446 207 388 b 511 243 449 321 511 301 b 379 161 511 190 457 161 z m 656 1196 l 507 1196 l 394 1046 l 392 1046 l 276 1196 l 131 1196 l 296 936 l 490 936 z "},"š":{"ha":639,"x_min":0,"x_max":0,"o":"m 600 192 b 357 404 600 321 510 371 b 246 468 286 419 246 433 b 325 517 246 500 274 517 b 547 458 386 517 474 494 l 590 611 b 328 667 526 642 414 667 b 43 460 149 667 43 581 b 289 249 43 333 139 278 b 399 182 363 232 399 218 b 311 129 399 149 368 129 b 75 190 236 129 150 151 l 33 36 b 307 -21 101 0 218 -21 b 600 192 497 -21 600 75 z m 583 992 l 435 992 l 322 842 l 319 842 l 204 992 l 58 992 l 224 732 l 418 732 z "},"Ţ":{"ha":836,"x_min":0,"x_max":0,"o":"m 299 -169 b 388 -247 375 -193 388 -218 b 296 -347 388 -276 360 -311 l 343 -397 b 533 -196 461 -360 533 -286 b 407 -71 533 -122 481 -71 b 299 -169 344 -71 300 -117 z m 804 683 l 804 868 l 31 868 l 31 683 l 307 683 l 307 0 l 528 0 l 528 683 z "},"ţ":{"ha":524,"x_min":0,"x_max":0,"o":"m 185 -169 b 274 -247 261 -193 274 -218 b 182 -347 274 -276 246 -311 l 229 -397 b 419 -196 347 -360 419 -286 b 293 -71 419 -122 367 -71 b 185 -169 231 -71 186 -117 z m 493 3 l 468 169 b 383 153 439 160 410 153 b 299 238 331 153 296 178 l 306 469 l 478 469 l 482 638 l 321 638 l 322 792 l 115 792 l 113 644 l 15 613 l 11 476 l 108 460 l 99 214 b 336 -21 90 44 176 -21 b 493 3 401 -21 443 -12 z "},"Ț":{"ha":836,"x_min":0,"x_max":0,"o":"m 299 -169 b 388 -247 375 -193 388 -218 b 296 -347 388 -276 360 -311 l 343 -397 b 533 -196 461 -360 533 -286 b 407 -71 533 -122 481 -71 b 299 -169 344 -71 300 -117 z m 804 683 l 804 868 l 31 868 l 31 683 l 307 683 l 307 0 l 528 0 l 528 683 z "},"ț":{"ha":524,"x_min":0,"x_max":0,"o":"m 185 -169 b 274 -247 261 -193 274 -218 b 182 -347 274 -276 246 -311 l 229 -397 b 419 -196 347 -360 419 -286 b 293 -71 419 -122 367 -71 b 185 -169 231 -71 186 -117 z m 493 3 l 468 169 b 383 153 439 160 410 153 b 299 238 331 153 296 178 l 306 469 l 478 469 l 482 638 l 321 638 l 322 792 l 115 792 l 113 644 l 15 613 l 11 476 l 108 460 l 99 214 b 336 -21 90 44 176 -21 b 493 3 401 -21 443 -12 z "},"Ť":{"ha":836,"x_min":0,"x_max":0,"o":"m 681 1214 l 532 1214 l 419 1064 l 417 1064 l 301 1214 l 156 1214 l 321 954 l 515 954 z m 804 683 l 804 868 l 31 868 l 31 683 l 307 683 l 307 0 l 528 0 l 528 683 z "},"ť":{"ha":524,"x_min":0,"x_max":0,"o":"m 358 1000 b 483 894 454 960 483 932 b 344 749 483 849 421 801 l 439 665 b 674 949 560 731 674 821 b 507 1125 674 1043 604 1125 b 358 1000 428 1125 367 1075 z m 493 3 l 468 169 b 383 153 439 160 410 153 b 299 238 331 153 296 178 l 306 469 l 478 469 l 482 638 l 321 638 l 322 792 l 115 792 l 113 644 l 15 613 l 11 476 l 108 460 l 99 214 b 336 -21 90 44 176 -21 b 493 3 401 -21 443 -12 z "},"Ù":{"ha":933,"x_min":0,"x_max":0,"o":"m 850 354 b 850 868 850 358 850 868 l 631 868 b 631 356 631 868 631 353 b 472 165 631 221 576 165 b 304 364 357 165 304 233 l 304 868 l 85 868 l 85 335 b 467 -21 85 90 240 -21 b 850 354 700 -21 850 103 z m 554 928 l 417 1185 l 186 1185 l 421 928 z "},"ù":{"ha":775,"x_min":0,"x_max":0,"o":"m 464 732 l 326 989 l 96 989 l 331 732 z m 72 646 l 72 201 b 275 -21 72 64 149 -21 b 485 79 360 -21 435 25 b 485 -17 485 78 485 -17 l 699 10 l 699 646 l 485 646 l 485 203 b 375 160 458 179 421 160 b 286 264 319 160 286 186 l 286 646 z "},"Ú":{"ha":933,"x_min":0,"x_max":0,"o":"m 850 354 b 850 868 850 358 850 868 l 631 868 b 631 356 631 868 631 353 b 472 165 631 221 576 165 b 304 364 357 165 304 233 l 304 868 l 85 868 l 85 335 b 467 -21 85 90 240 -21 b 850 354 700 -21 850 103 z m 749 1185 l 518 1185 l 381 928 l 514 928 z "},"ú":{"ha":775,"x_min":0,"x_max":0,"o":"m 72 646 l 72 201 b 275 -21 72 64 149 -21 b 485 79 360 -21 435 25 b 485 -17 485 78 485 -17 l 699 10 l 699 646 l 485 646 l 485 203 b 375 160 458 179 421 160 b 286 264 319 160 286 186 l 286 646 z m 679 989 l 449 989 l 311 732 l 444 732 z "},"Û":{"ha":933,"x_min":0,"x_max":0,"o":"m 850 354 b 850 868 850 358 850 868 l 631 868 b 631 356 631 868 631 353 b 472 165 631 221 576 165 b 304 364 357 165 304 233 l 304 868 l 85 868 l 85 335 b 467 -21 85 90 240 -21 b 850 354 700 -21 850 103 z m 731 928 l 565 1188 l 371 1188 l 206 928 l 354 928 l 467 1076 l 469 1076 l 585 928 z "},"û":{"ha":775,"x_min":0,"x_max":0,"o":"m 72 646 l 72 201 b 275 -21 72 64 149 -21 b 485 79 360 -21 435 25 b 485 -17 485 78 485 -17 l 699 10 l 699 646 l 485 646 l 485 203 b 375 160 458 179 421 160 b 286 264 319 160 286 186 l 286 646 z m 650 732 l 485 992 l 290 992 l 125 732 l 274 732 l 386 881 l 389 881 l 504 732 z "},"Ü":{"ha":933,"x_min":0,"x_max":0,"o":"m 850 354 b 850 868 850 358 850 868 l 631 868 b 631 356 631 868 631 353 b 472 165 631 221 576 165 b 304 364 357 165 304 233 l 304 868 l 85 868 l 85 335 b 467 -21 85 90 240 -21 b 850 354 700 -21 850 103 z m 739 1040 b 629 1147 739 1110 696 1147 b 519 1040 564 1147 519 1110 b 629 933 519 971 564 933 b 739 1040 696 933 739 971 z m 417 1040 b 306 1147 417 1110 371 1147 b 194 1040 240 1147 194 1110 b 306 933 194 971 240 933 b 417 1040 371 933 417 971 z "},"ü":{"ha":775,"x_min":0,"x_max":0,"o":"m 72 646 l 72 201 b 275 -21 72 64 149 -21 b 485 79 360 -21 435 25 b 485 -17 485 78 485 -17 l 699 10 l 699 646 l 485 646 l 485 203 b 375 160 458 179 421 160 b 286 264 319 160 286 186 l 286 646 z m 658 835 b 549 942 658 904 615 942 b 439 835 483 942 439 904 b 549 728 439 765 483 728 b 658 835 615 728 658 765 z m 336 835 b 225 942 336 904 290 942 b 114 835 160 942 114 904 b 225 728 114 765 160 728 b 336 835 290 728 336 765 z "},"Ū":{"ha":933,"x_min":0,"x_max":0,"o":"m 850 354 b 850 868 850 358 850 868 l 631 868 b 631 356 631 868 631 353 b 472 165 631 221 576 165 b 304 364 357 165 304 233 l 304 868 l 85 868 l 85 335 b 467 -21 85 90 240 -21 b 850 354 700 -21 850 103 z m 721 985 l 706 1106 l 231 1106 l 215 985 z "},"ū":{"ha":775,"x_min":0,"x_max":0,"o":"m 72 646 l 72 201 b 275 -21 72 64 149 -21 b 485 79 360 -21 435 25 b 485 -17 485 78 485 -17 l 699 10 l 699 646 l 485 646 l 485 203 b 375 160 458 179 421 160 b 286 264 319 160 286 186 l 286 646 z m 639 763 l 624 883 l 149 883 l 133 763 z "},"Ŭ":{"ha":933,"x_min":0,"x_max":0,"o":"m 850 354 b 850 868 850 358 850 868 l 631 868 b 631 356 631 868 631 353 b 472 165 631 221 576 165 b 304 364 357 165 304 233 l 304 868 l 85 868 l 85 335 b 467 -21 85 90 240 -21 b 850 354 700 -21 850 103 z m 721 1208 l 592 1207 b 468 1067 578 1124 539 1067 b 344 1207 399 1067 360 1124 l 215 1208 b 468 944 231 1025 347 944 b 721 1208 592 944 706 1025 z "},"ŭ":{"ha":775,"x_min":0,"x_max":0,"o":"m 72 646 l 72 201 b 275 -21 72 64 149 -21 b 485 79 360 -21 435 25 b 485 -17 485 78 485 -17 l 699 10 l 699 646 l 485 646 l 485 203 b 375 160 458 179 421 160 b 286 264 319 160 286 186 l 286 646 z m 635 986 l 506 985 b 382 844 492 901 453 844 b 258 985 313 844 274 901 l 129 986 b 382 722 144 803 261 722 b 635 986 506 722 619 803 z "},"Ů":{"ha":933,"x_min":0,"x_max":0,"o":"m 664 1101 b 468 1265 664 1194 589 1265 b 272 1101 347 1265 272 1193 b 468 938 272 1010 347 938 b 664 1101 589 938 665 1010 z m 582 1103 b 468 1006 582 1047 539 1006 b 356 1103 400 1006 356 1047 b 468 1197 356 1158 400 1197 b 582 1103 539 1197 582 1158 z m 850 354 b 850 868 850 358 850 868 l 631 868 b 631 356 631 868 631 353 b 472 165 631 221 576 165 b 304 364 357 165 304 233 l 304 868 l 85 868 l 85 335 b 467 -21 85 90 240 -21 b 850 354 700 -21 850 103 z "},"ů":{"ha":775,"x_min":0,"x_max":0,"o":"m 575 889 b 379 1053 575 982 500 1053 b 183 889 258 1053 183 981 b 379 725 183 797 258 725 b 575 889 500 725 576 797 z m 493 890 b 379 793 493 835 450 793 b 267 890 311 793 267 835 b 379 985 267 946 311 985 b 493 890 450 985 493 946 z m 72 646 l 72 201 b 275 -21 72 64 149 -21 b 485 79 360 -21 435 25 b 485 -17 485 78 485 -17 l 699 10 l 699 646 l 485 646 l 485 203 b 375 160 458 179 421 160 b 286 264 319 160 286 186 l 286 646 z "},"Ű":{"ha":933,"x_min":0,"x_max":0,"o":"m 850 354 b 850 868 850 358 850 868 l 631 868 b 631 356 631 868 631 353 b 472 165 631 221 576 165 b 304 364 357 165 304 233 l 304 868 l 85 868 l 85 335 b 467 -21 85 90 240 -21 b 850 354 700 -21 850 103 z m 915 1208 l 718 1208 l 519 954 l 658 954 z m 610 1208 l 413 1208 l 242 954 l 385 954 z "},"ű":{"ha":775,"x_min":0,"x_max":0,"o":"m 72 646 l 72 201 b 275 -21 72 64 149 -21 b 485 79 360 -21 435 25 b 485 -17 485 78 485 -17 l 699 10 l 699 646 l 485 646 l 485 203 b 375 160 458 179 421 160 b 286 264 319 160 286 186 l 286 646 z m 789 986 l 592 986 l 393 732 l 532 732 z m 483 986 l 286 986 l 115 732 l 258 732 z "},"Ų":{"ha":933,"x_min":0,"x_max":0,"o":"m 850 354 l 850 868 l 631 868 l 631 356 b 472 165 631 221 576 165 b 304 364 357 165 304 233 l 304 868 l 85 868 l 85 335 b 467 -21 85 92 240 -21 b 488 -21 471 -21 483 -21 b 407 -164 439 -54 407 -104 b 575 -306 407 -251 474 -306 b 719 -268 640 -306 685 -290 l 690 -160 b 619 -178 672 -171 644 -178 b 560 -115 582 -178 560 -156 b 665 14 560 -65 601 -19 b 850 354 782 75 850 181 z "},"ų":{"ha":775,"x_min":0,"x_max":0,"o":"m 72 646 l 72 201 b 275 -21 72 64 149 -21 b 485 79 360 -21 435 25 l 485 0 b 369 -164 422 -32 369 -90 b 538 -306 369 -251 436 -306 b 682 -268 603 -306 647 -290 l 653 -160 b 582 -178 635 -171 607 -178 b 522 -115 544 -178 522 -156 b 699 6 522 -60 610 -6 l 699 646 l 485 646 l 485 203 b 375 160 458 179 421 160 b 286 264 319 160 286 186 l 286 646 z "},"Ŵ":{"ha":1326,"x_min":0,"x_max":0,"o":"m 929 954 l 764 1214 l 569 1214 l 404 954 l 553 954 l 665 1103 l 668 1103 l 783 954 z m 664 618 l 832 0 l 1063 0 l 1294 868 l 1068 868 l 951 254 l 793 868 l 540 868 l 385 254 l 268 868 l 32 868 l 264 0 l 493 0 z "},"ŵ":{"ha":1071,"x_min":0,"x_max":0,"o":"m 799 732 l 633 992 l 439 992 l 274 732 l 422 732 l 535 881 l 538 881 l 653 732 z m 414 -3 l 538 422 l 661 -3 l 878 -3 l 1061 646 l 839 646 l 764 224 l 653 646 l 429 646 l 319 217 l 232 646 l 15 646 l 197 -3 z "},"Ẁ":{"ha":1326,"x_min":0,"x_max":0,"o":"m 664 618 l 832 0 l 1063 0 l 1294 868 l 1068 868 l 951 254 l 793 868 l 540 868 l 385 254 l 268 868 l 32 868 l 264 0 l 493 0 z m 754 954 l 617 1211 l 386 1211 l 621 954 z "},"ẁ":{"ha":1071,"x_min":0,"x_max":0,"o":"m 414 -3 l 538 422 l 661 -3 l 878 -3 l 1061 646 l 839 646 l 764 224 l 653 646 l 429 646 l 319 217 l 232 646 l 15 646 l 197 -3 z m 635 732 l 497 989 l 267 989 l 501 732 z "},"Ẃ":{"ha":1326,"x_min":0,"x_max":0,"o":"m 928 1211 l 697 1211 l 560 954 l 693 954 z m 664 618 l 832 0 l 1063 0 l 1294 868 l 1068 868 l 951 254 l 793 868 l 540 868 l 385 254 l 268 868 l 32 868 l 264 0 l 493 0 z "},"ẃ":{"ha":1071,"x_min":0,"x_max":0,"o":"m 806 989 l 575 989 l 438 732 l 571 732 z m 414 -3 l 538 422 l 661 -3 l 878 -3 l 1061 646 l 839 646 l 764 224 l 653 646 l 429 646 l 319 217 l 232 646 l 15 646 l 197 -3 z "},"Ẅ":{"ha":1326,"x_min":0,"x_max":0,"o":"m 942 1067 b 832 1174 942 1136 899 1174 b 722 1067 767 1174 722 1136 b 832 960 722 997 767 960 b 942 1067 899 960 942 997 z m 619 1067 b 508 1174 619 1136 574 1174 b 397 1067 443 1174 397 1136 b 508 960 397 997 443 960 b 619 1067 574 960 619 997 z m 664 618 l 832 0 l 1063 0 l 1294 868 l 1068 868 l 951 254 l 793 868 l 540 868 l 385 254 l 268 868 l 32 868 l 264 0 l 493 0 z "},"ẅ":{"ha":1071,"x_min":0,"x_max":0,"o":"m 807 844 b 697 951 807 914 764 951 b 588 844 632 951 588 914 b 697 738 588 775 632 738 b 807 844 764 738 807 775 z m 485 844 b 374 951 485 914 439 951 b 263 844 308 951 263 914 b 374 738 263 775 308 738 b 485 844 439 738 485 775 z m 414 -3 l 538 422 l 661 -3 l 878 -3 l 1061 646 l 839 646 l 764 224 l 653 646 l 429 646 l 319 217 l 232 646 l 15 646 l 197 -3 z "},"Ý":{"ha":849,"x_min":0,"x_max":0,"o":"m 835 868 l 601 868 l 428 525 l 249 868 l 14 868 l 317 331 l 317 0 l 533 0 l 533 329 z m 715 1185 l 485 1185 l 347 928 l 481 928 z "},"ý":{"ha":706,"x_min":0,"x_max":0,"o":"m 711 646 l 483 646 l 358 221 l 221 646 l -8 646 l 244 4 l 226 -46 b 135 -125 201 -108 181 -125 b 35 -96 101 -125 76 -114 l -29 -258 b 163 -300 31 -286 93 -300 b 446 -54 299 -300 379 -243 l 478 31 z m 635 989 l 404 989 l 267 732 l 400 732 z "},"Ŷ":{"ha":849,"x_min":0,"x_max":0,"o":"m 835 868 l 601 868 l 428 525 l 249 868 l 14 868 l 317 331 l 317 0 l 533 0 l 533 329 z m 689 954 l 524 1214 l 329 1214 l 164 954 l 313 954 l 425 1103 l 428 1103 l 543 954 z "},"ŷ":{"ha":706,"x_min":0,"x_max":0,"o":"m 711 646 l 483 646 l 358 221 l 221 646 l -8 646 l 244 4 l 226 -46 b 135 -125 201 -108 181 -125 b 35 -96 101 -125 76 -114 l -29 -258 b 163 -300 31 -286 93 -300 b 446 -54 299 -300 379 -243 l 478 31 z m 614 732 l 449 992 l 254 992 l 89 732 l 238 732 l 350 881 l 353 881 l 468 732 z "},"Ÿ":{"ha":849,"x_min":0,"x_max":0,"o":"m 835 868 l 601 868 l 428 525 l 249 868 l 14 868 l 317 331 l 317 0 l 533 0 l 533 329 z m 696 1040 b 586 1147 696 1110 653 1147 b 476 1040 521 1147 476 1110 b 586 933 476 971 521 933 b 696 1040 653 933 696 971 z m 374 1040 b 263 1147 374 1110 328 1147 b 151 1040 197 1147 151 1110 b 263 933 151 971 197 933 b 374 1040 328 933 374 971 z "},"ÿ":{"ha":706,"x_min":0,"x_max":0,"o":"m 711 646 l 483 646 l 358 221 l 221 646 l -8 646 l 244 4 l 226 -46 b 135 -125 201 -108 181 -125 b 35 -96 101 -125 76 -114 l -29 -258 b 163 -300 31 -286 93 -300 b 446 -54 299 -300 379 -243 l 478 31 z m 622 844 b 513 951 622 914 579 951 b 403 844 447 951 403 914 b 513 738 403 775 447 738 b 622 844 579 738 622 775 z m 300 844 b 189 951 300 914 254 951 b 78 844 124 951 78 914 b 189 738 78 775 124 738 b 300 844 254 738 300 775 z "},"Ź":{"ha":806,"x_min":0,"x_max":0,"o":"m 672 1211 l 442 1211 l 304 954 l 438 954 z m 753 0 l 753 186 l 322 186 l 754 721 l 754 868 l 51 868 l 51 683 l 476 683 l 43 146 l 43 0 z "},"ź":{"ha":638,"x_min":0,"x_max":0,"o":"m 581 989 l 350 989 l 213 732 l 346 732 z m 608 0 l 608 175 l 307 175 l 608 518 l 608 646 l 38 646 l 38 469 l 328 469 l 25 128 l 25 0 z "},"Ż":{"ha":806,"x_min":0,"x_max":0,"o":"m 753 0 l 753 186 l 322 186 l 754 721 l 754 868 l 51 868 l 51 683 l 476 683 l 43 146 l 43 0 z m 531 1056 b 414 1176 531 1119 486 1176 b 297 1056 344 1176 297 1119 b 414 935 297 989 344 935 b 531 1056 486 935 531 989 z "},"ż":{"ha":638,"x_min":0,"x_max":0,"o":"m 608 0 l 608 175 l 307 175 l 608 518 l 608 646 l 38 646 l 38 469 l 328 469 l 25 128 l 25 0 z m 438 833 b 321 954 438 897 393 954 b 204 833 251 954 204 897 b 321 713 204 767 251 713 b 438 833 393 713 438 767 z "},"Ž":{"ha":806,"x_min":0,"x_max":0,"o":"m 753 0 l 753 186 l 322 186 l 754 721 l 754 868 l 51 868 l 51 683 l 476 683 l 43 146 l 43 0 z m 664 1188 l 515 1188 l 403 1038 l 400 1038 l 285 1188 l 139 1188 l 304 928 l 499 928 z "},"ž":{"ha":638,"x_min":0,"x_max":0,"o":"m 608 0 l 608 175 l 307 175 l 608 518 l 608 646 l 38 646 l 38 469 l 328 469 l 25 128 l 25 0 z m 576 992 l 428 992 l 315 842 l 313 842 l 197 992 l 51 992 l 217 732 l 411 732 z "},"$":{"ha":781,"x_min":0,"x_max":0,"o":"m 410 336 b 518 243 486 314 518 290 b 382 154 518 188 469 157 z m 418 888 b 385 888 407 888 396 888 b 53 619 169 888 53 781 b 319 357 53 451 196 392 l 289 168 b 79 242 214 181 142 208 l 39 58 b 261 -12 96 26 175 0 l 236 -169 l 331 -169 l 354 -21 b 372 -21 360 -21 367 -21 b 728 261 600 -21 728 96 b 456 524 728 426 589 488 b 482 696 456 524 483 696 b 667 629 544 683 610 660 l 710 811 b 511 878 654 842 589 865 l 532 1015 l 438 1015 z m 363 543 b 264 632 297 564 264 590 b 390 714 264 683 303 713 z "},"¢":{"ha":668,"x_min":0,"x_max":0,"o":"m 518 654 l 543 801 l 447 801 l 424 667 b 397 667 415 667 407 667 b 43 318 181 667 43 532 b 308 -14 43 129 146 15 l 279 -189 l 375 -189 l 403 -21 b 629 32 492 -19 576 0 l 597 194 b 431 143 549 165 494 144 l 490 494 b 592 451 526 485 561 469 l 633 613 b 518 654 601 631 561 644 z m 396 503 l 338 161 b 251 325 283 189 251 246 b 396 503 251 422 303 493 z "},"£":{"ha":790,"x_min":0,"x_max":0,"o":"m 157 476 l 39 476 l 44 381 l 172 381 b 182 274 178 343 182 307 b 26 142 182 197 132 167 b 72 -25 26 144 72 -25 b 303 90 179 -3 254 36 b 536 -21 358 36 440 -21 b 783 258 663 -21 769 64 l 631 286 b 517 154 617 182 571 154 b 365 210 465 154 408 176 b 375 300 372 238 375 268 b 371 381 375 326 374 354 b 589 381 372 381 589 381 l 596 476 l 361 476 b 353 578 357 517 353 550 b 488 719 353 661 397 719 b 678 657 551 719 622 696 b 719 819 678 661 719 819 b 469 889 651 864 556 889 b 149 588 276 889 149 776 b 157 476 149 553 151 515 z "},"¥":{"ha":850,"x_min":0,"x_max":0,"o":"m 322 338 l 322 246 l 79 246 l 74 150 l 318 150 l 318 0 l 533 0 l 533 150 l 778 150 l 771 246 l 529 246 l 529 338 l 771 338 l 778 433 l 561 433 l 835 868 l 601 868 l 426 542 l 249 868 l 15 868 l 290 433 l 74 433 l 79 338 z "},"ƒ":{"ha":628,"x_min":0,"x_max":0,"o":"m 149 257 b -1 136 136 188 90 153 l 49 -25 b 356 275 246 10 326 89 l 378 393 l 549 393 l 578 560 l 394 560 l 406 632 b 488 713 415 685 443 713 b 586 681 517 713 554 700 l 651 838 b 460 885 607 863 538 885 b 211 647 310 885 235 799 l 197 567 l 47 536 l 14 400 l 174 392 z "},"€":{"ha":764,"x_min":0,"x_max":0,"o":"m 142 493 b 139 431 140 474 139 453 b 142 378 139 413 140 394 l 42 378 l 35 281 l 150 281 b 499 -21 188 58 319 -21 b 740 32 597 -21 688 -1 l 708 193 b 535 146 660 164 599 146 b 376 281 463 146 404 185 l 606 281 l 600 378 l 357 378 b 353 442 354 399 353 418 b 356 493 353 458 354 478 l 642 493 l 647 590 b 369 590 647 590 371 590 b 528 731 393 688 446 731 b 703 683 593 731 654 711 l 744 843 b 501 897 689 875 596 897 b 151 590 329 897 193 810 l 35 590 l 42 493 z "},"¤":{"ha":674,"x_min":0,"x_max":0,"o":"m 639 696 l 538 797 l 454 714 b 338 740 421 731 379 740 b 224 715 294 740 256 732 l 136 803 l 33 700 l 121 614 b 97 499 100 578 97 546 b 121 381 97 456 103 417 l 38 297 l 139 196 l 222 279 b 338 257 253 265 294 257 b 451 282 381 257 419 265 l 543 190 l 646 293 l 553 386 b 576 499 569 419 576 458 b 551 608 576 532 565 576 z m 442 499 b 338 390 442 440 403 390 b 232 499 271 390 232 440 b 338 607 232 558 271 607 b 442 499 403 607 442 558 z "},"%":{"ha":1156,"x_min":0,"x_max":0,"o":"m 513 660 b 269 901 513 803 422 901 b 25 660 118 901 25 804 b 268 417 25 515 115 417 b 513 660 421 417 513 515 z m 1019 888 l 858 888 l 139 -21 l 300 -21 z m 1131 208 b 888 450 1131 351 1040 450 b 643 208 736 450 643 351 b 886 -35 643 64 733 -35 b 1131 208 1039 -35 1131 63 z m 369 658 b 269 529 369 579 329 529 b 168 658 207 529 168 578 b 268 790 168 740 207 790 b 369 658 329 790 369 740 z m 988 207 b 888 76 988 126 949 76 b 786 207 825 76 786 125 b 888 338 786 288 825 338 b 988 207 949 338 988 288 z "},"‰":{"ha":1711,"x_min":0,"x_max":0,"o":"m 513 660 b 269 901 513 803 422 901 b 25 660 118 901 25 804 b 268 417 25 515 115 417 b 513 660 421 417 513 515 z m 1019 888 l 858 888 l 139 -21 l 300 -21 z m 1131 208 b 888 450 1131 351 1040 450 b 643 208 736 450 643 351 b 886 -35 643 64 733 -35 b 1131 208 1039 -35 1131 63 z m 369 658 b 269 529 369 579 329 529 b 168 658 207 529 168 578 b 268 790 168 740 207 790 b 369 658 329 790 369 740 z m 988 207 b 888 76 988 126 949 76 b 786 207 825 76 786 125 b 888 338 786 288 825 338 b 988 207 949 338 988 288 z m 1686 208 b 1442 450 1686 351 1594 450 b 1197 208 1290 450 1197 351 b 1440 -35 1197 64 1288 -35 b 1686 208 1593 -35 1686 63 z m 1542 207 b 1442 76 1542 126 1503 76 b 1340 207 1379 76 1340 125 b 1442 338 1340 288 1379 338 b 1542 207 1503 338 1542 288 z "},"#":{"ha":864,"x_min":0,"x_max":0,"o":"m 200 490 l 154 318 l 21 318 l 21 164 l 113 164 l 40 -103 l 200 -103 l 271 164 l 468 164 l 396 -103 l 554 -103 l 626 164 l 818 164 l 818 318 l 668 318 l 714 490 l 846 490 l 846 644 l 754 644 l 821 892 l 663 892 l 596 644 l 400 644 l 467 892 l 307 892 l 242 644 l 49 644 l 49 490 z m 558 499 l 506 310 l 310 310 l 360 499 z "},"¹":{"ha":458,"x_min":0,"x_max":0,"o":"m 178 379 l 353 379 l 353 906 l 50 856 l 56 726 l 178 747 z "},"²":{"ha":458,"x_min":0,"x_max":0,"o":"m 410 379 l 407 504 b 211 504 407 504 210 504 b 410 738 349 608 410 660 b 215 906 410 828 347 906 b 15 835 136 906 64 879 b 71 725 11 835 67 725 b 183 778 101 757 143 778 b 244 724 224 778 244 756 b 21 481 244 667 190 624 l 24 379 z "},"³":{"ha":458,"x_min":0,"x_max":0,"o":"m 264 647 b 401 772 356 669 401 713 b 211 906 401 864 325 906 b 24 857 138 906 68 883 l 71 746 b 189 785 100 767 147 785 b 246 746 236 785 246 767 b 100 678 246 707 200 693 l 100 575 b 182 583 121 578 151 583 b 274 533 251 583 274 561 b 182 485 274 499 236 485 b 49 513 142 485 92 497 l 25 400 b 193 367 68 382 126 367 b 424 525 329 367 424 424 b 264 647 424 596 369 653 z "},"¼":{"ha":993,"x_min":0,"x_max":0,"o":"m 982 -81 l 979 28 l 921 28 l 921 321 l 719 321 l 544 24 l 550 -81 l 775 -81 l 775 -199 l 921 -199 l 921 -81 z m 781 26 l 672 26 l 781 221 z m 994 868 l 833 868 l 56 -161 l 217 -161 z m 178 379 l 353 379 l 353 906 l 50 856 l 56 726 l 178 747 z "},"½":{"ha":993,"x_min":0,"x_max":0,"o":"m 974 868 l 813 868 l 35 -161 l 196 -161 z m 178 379 l 353 379 l 353 906 l 50 856 l 56 726 l 178 747 z m 944 -199 l 942 -74 b 746 -74 942 -74 744 -74 b 944 160 883 31 944 82 b 750 328 944 250 882 328 b 550 257 671 328 599 301 b 606 147 546 257 601 147 b 718 200 636 179 678 200 b 779 146 758 200 779 178 b 556 -97 779 89 725 46 l 558 -199 z "},"¾":{"ha":993,"x_min":0,"x_max":0,"o":"m 982 -81 l 979 28 l 921 28 l 921 321 l 719 321 l 544 24 l 550 -81 l 775 -81 l 775 -199 l 921 -199 l 921 -81 z m 781 26 l 672 26 l 781 221 z m 994 868 l 833 868 l 56 -161 l 217 -161 z m 264 647 b 401 772 356 669 401 713 b 211 906 401 864 325 906 b 24 857 138 906 68 883 l 71 746 b 189 785 100 767 147 785 b 246 746 236 785 246 767 b 100 678 246 707 200 693 l 100 575 b 182 583 121 578 151 583 b 274 533 251 583 274 561 b 182 485 274 499 236 485 b 49 513 142 485 92 497 l 25 400 b 193 367 68 382 126 367 b 424 525 329 367 424 424 b 264 647 424 596 369 653 z "},"°":{"ha":531,"x_min":0,"x_max":0,"o":"m 494 658 b 265 889 494 783 407 889 b 36 658 124 889 36 783 b 265 431 36 535 124 431 b 494 658 407 431 494 535 z m 419 658 b 265 501 419 575 363 501 b 110 658 168 501 110 575 b 265 818 110 747 168 818 b 419 658 363 818 419 747 z "},"ª":{"ha":551,"x_min":0,"x_max":0,"o":"m 549 375 b 493 521 524 408 493 457 l 493 690 b 267 890 493 824 410 890 b 28 817 181 890 83 860 l 75 697 b 242 757 124 731 188 757 b 322 688 294 757 322 729 l 322 669 b 26 483 108 660 26 585 b 174 340 26 400 86 340 b 322 421 239 340 290 379 l 328 421 b 374 339 339 383 356 360 z m 322 486 b 243 456 306 469 271 456 b 182 513 207 456 182 476 b 322 593 182 554 221 583 z "},"º":{"ha":628,"x_min":0,"x_max":0,"o":"m 590 614 b 317 889 590 786 475 889 b 38 614 158 889 38 786 b 311 339 38 443 154 339 b 590 614 468 339 590 443 z m 419 613 b 315 464 419 522 382 464 b 208 615 247 464 208 525 b 313 765 208 706 246 765 b 419 613 381 765 419 703 z "},"+":{"ha":731,"x_min":0,"x_max":0,"o":"m 685 251 l 681 413 l 451 413 l 451 649 l 281 649 l 281 413 l 51 413 l 47 251 l 281 251 l 281 15 l 451 15 l 451 251 z "},"−":{"ha":731,"x_min":0,"x_max":0,"o":"m 685 251 l 681 413 l 51 413 l 47 251 z "},"±":{"ha":731,"x_min":0,"x_max":0,"o":"m 685 379 l 681 540 l 451 540 l 451 735 l 281 735 l 281 540 l 51 540 l 47 379 l 281 379 l 281 185 l 451 185 l 451 379 z m 685 0 l 681 161 l 51 161 l 47 0 z "},"¬":{"ha":703,"x_min":0,"x_max":0,"o":"m 681 474 l 60 474 l 56 313 l 519 313 l 519 126 l 681 126 z "},"=":{"ha":703,"x_min":0,"x_max":0,"o":"m 640 397 l 647 557 l 58 557 l 65 397 z m 647 94 l 640 254 l 65 254 l 58 94 z "},"≠":{"ha":703,"x_min":0,"x_max":0,"o":"m 175 -46 l 338 -46 l 374 94 l 647 94 l 640 254 l 415 254 l 453 397 l 640 397 l 647 557 l 494 557 l 528 683 l 365 683 l 332 557 l 58 557 l 65 397 l 290 397 l 253 254 l 65 254 l 58 94 l 211 94 z "},"≈":{"ha":703,"x_min":0,"x_max":0,"o":"m 642 285 l 508 285 b 457 226 504 231 483 226 b 229 292 422 226 306 292 b 61 78 117 292 65 190 l 196 78 b 246 136 200 118 215 136 b 474 71 288 136 396 71 b 642 285 586 71 638 172 z m 640 574 l 507 574 b 456 515 503 519 482 515 b 228 581 421 515 304 581 b 60 367 115 581 64 479 l 194 367 b 244 425 199 407 214 425 b 472 360 286 425 394 360 b 640 574 585 360 636 461 z "},"×":{"ha":731,"x_min":0,"x_max":0,"o":"m 683 126 l 475 332 l 685 536 l 572 649 l 365 440 l 160 649 l 47 536 l 256 331 l 49 126 l 161 14 l 365 221 l 571 14 z "},"÷":{"ha":731,"x_min":0,"x_max":0,"o":"m 685 251 l 681 413 l 51 413 l 47 251 z m 479 75 b 367 183 479 139 433 183 b 254 75 300 183 254 139 b 367 -33 254 11 300 -33 b 479 75 433 -33 479 11 z m 479 589 b 365 697 479 653 433 697 b 254 589 299 697 254 653 b 365 481 254 525 299 481 b 479 589 433 481 479 525 z "},"<":{"ha":697,"x_min":0,"x_max":0,"o":"m 619 175 l 279 319 l 279 333 l 619 479 l 619 649 l 63 396 l 63 258 l 619 6 z "},">":{"ha":697,"x_min":0,"x_max":0,"o":"m 635 258 l 635 396 l 78 649 l 78 479 l 418 333 l 418 319 l 78 175 l 78 6 z "},"≤":{"ha":703,"x_min":0,"x_max":0,"o":"m 618 0 l 614 161 l 88 161 l 83 0 z m 613 351 l 308 475 l 308 488 l 613 613 l 613 782 l 83 557 l 83 407 l 613 182 z "},"≥":{"ha":703,"x_min":0,"x_max":0,"o":"m 619 0 l 615 161 l 89 161 l 85 0 z m 90 182 l 619 407 l 619 557 l 90 782 l 90 613 l 394 488 l 394 475 l 90 351 z "},"⁄":{"ha":906,"x_min":0,"x_max":0,"o":"m 893 888 l 732 888 l 13 -21 l 172 -21 z "},"∕":{"ha":906,"x_min":0,"x_max":0,"o":"m 893 888 l 732 888 l 13 -21 l 172 -21 z "},"µ":{"ha":779,"x_min":0,"x_max":0,"o":"m 290 646 l 76 646 l 76 -324 l 290 -324 l 290 39 b 390 -17 315 -4 349 -17 b 490 63 432 -17 472 18 l 490 0 l 703 0 l 703 646 l 489 646 l 489 285 b 389 160 489 185 436 160 b 290 278 335 160 290 178 z "},"|":{"ha":371,"x_min":0,"x_max":0,"o":"m 93 -278 l 278 -278 l 278 974 l 93 974 z "},"¦":{"ha":371,"x_min":0,"x_max":0,"o":"m 93 426 l 278 426 l 278 892 l 93 892 z m 93 -193 l 278 -193 l 278 272 l 93 272 z "},"@":{"ha":1190,"x_min":0,"x_max":0,"o":"m 829 276 l 900 632 l 714 603 b 600 631 678 618 636 631 b 306 313 431 631 306 499 b 499 82 306 171 390 82 b 665 167 556 82 618 110 b 851 51 692 92 758 51 b 1151 428 1007 51 1151 178 b 624 904 1151 721 904 904 b 64 336 310 904 64 646 b 578 -192 64 40 279 -192 b 774 -158 649 -192 708 -181 l 757 -106 b 581 -135 700 -124 642 -135 b 126 338 315 -135 126 76 b 624 849 126 613 346 849 b 1088 428 861 849 1088 683 b 908 143 1088 244 996 143 b 829 276 833 143 811 186 z m 653 244 b 569 211 631 226 606 211 b 478 326 518 211 478 254 b 611 507 478 418 531 507 b 699 468 649 507 678 489 z "},"•":{"ha":608,"x_min":0,"x_max":0,"o":"m 572 322 b 494 511 572 363 522 483 b 306 589 467 539 346 589 b 117 511 267 589 144 539 b 38 322 89 483 38 363 b 117 132 38 282 89 161 b 304 54 143 104 265 54 b 494 132 344 54 467 104 b 572 322 524 161 572 282 z "},"^":{"ha":553,"x_min":0,"x_max":0,"o":"m 540 732 l 375 992 l 181 992 l 15 732 l 164 732 l 276 881 l 279 881 l 394 732 z "},"~":{"ha":553,"x_min":0,"x_max":0,"o":"m 543 469 b 415 469 549 469 421 469 b 372 399 408 414 396 399 b 161 478 328 399 249 478 b 10 267 79 478 26 432 b 136 267 3 267 131 267 b 181 336 143 322 157 336 b 390 257 224 336 304 257 b 543 469 472 257 526 303 z "},"/":{"ha":397,"x_min":0,"x_max":0,"o":"m 443 975 l 268 975 l -69 -276 l 106 -276 z "},"\\":{"ha":406,"x_min":0,"x_max":0,"o":"m -36 975 l 301 -276 l 476 -276 l 139 975 z "},"'":{"ha":314,"x_min":0,"x_max":0,"o":"m 143 553 l 350 846 l 165 896 l 6 553 z "},"\"":{"ha":604,"x_min":0,"x_max":0,"o":"m 433 553 l 642 846 l 456 896 l 296 553 z m 143 553 l 350 846 l 165 896 l 6 553 z "},"&":{"ha":914,"x_min":0,"x_max":0,"o":"m 394 533 b 282 656 328 563 282 597 b 375 746 282 704 319 746 b 474 651 432 746 474 710 b 394 533 474 596 439 563 z m 517 246 b 350 142 471 182 417 142 b 225 258 281 142 225 186 b 321 392 225 311 264 358 b 517 246 382 368 451 315 z m 600 139 l 708 -17 l 926 22 l 718 282 l 917 542 l 690 542 l 610 393 b 490 485 571 429 522 469 b 657 676 576 511 657 579 b 381 888 657 803 542 888 b 96 646 196 888 96 764 b 225 447 96 557 151 488 b 28 217 124 422 28 338 b 307 -21 28 75 143 -21 b 600 139 408 -21 514 32 z "},"(":{"ha":590,"x_min":0,"x_max":0,"o":"m 489 -368 l 601 -222 b 281 326 436 -121 281 74 b 601 875 281 579 436 774 l 489 1021 b 78 326 293 917 78 668 b 489 -368 78 -17 293 -264 z "},")":{"ha":590,"x_min":0,"x_max":0,"o":"m 101 -368 b 514 326 299 -264 514 -17 b 101 1021 514 668 299 917 l -10 875 b 311 326 154 774 311 579 b -10 -222 311 74 154 -121 z "},"[":{"ha":576,"x_min":0,"x_max":0,"o":"m 567 -285 l 567 -128 l 285 -128 l 285 803 l 567 803 l 567 961 l 94 961 l 94 -285 z "},"]":{"ha":578,"x_min":0,"x_max":0,"o":"m 10 -285 l 483 -285 l 483 961 l 10 961 l 10 803 l 292 803 l 292 -128 l 10 -128 z "},"{":{"ha":556,"x_min":0,"x_max":0,"o":"m 535 -294 l 535 -167 b 338 -69 386 -157 338 -131 b 375 165 338 -6 375 54 b 172 338 375 258 293 329 b 172 351 172 340 172 347 b 375 521 293 358 375 428 b 338 761 375 633 338 701 b 535 854 338 818 386 843 l 535 985 b 133 796 293 976 133 949 b 179 533 133 682 179 606 b 10 433 179 465 126 442 l 6 344 l 10 254 b 179 150 126 244 179 217 b 133 -108 179 78 133 6 b 535 -294 133 -261 293 -289 z "},"}":{"ha":556,"x_min":0,"x_max":0,"o":"m 550 344 l 546 433 b 376 533 429 442 376 465 b 421 796 376 606 421 682 b 21 985 421 949 263 976 l 21 854 b 218 761 168 843 218 818 b 181 521 218 701 181 633 b 383 351 181 428 261 358 b 383 338 383 347 383 340 b 181 165 261 329 181 258 b 218 -69 181 54 218 -6 b 21 -167 218 -131 168 -157 l 21 -294 b 421 -108 263 -289 421 -261 b 376 150 421 6 376 78 b 546 254 376 217 429 244 z "},"*":{"ha":547,"x_min":0,"x_max":0,"o":"m 256 564 l 268 561 l 278 338 l 447 392 l 324 579 l 331 589 l 542 529 l 542 707 l 331 647 l 322 656 l 450 842 l 282 897 l 267 675 l 256 671 l 119 847 l 15 703 l 222 624 l 222 611 l 13 533 l 118 389 z "},"†":{"ha":731,"x_min":0,"x_max":0,"o":"m 278 460 l 278 -175 l 453 -175 l 453 460 l 689 460 l 693 621 l 453 621 l 453 868 l 278 868 l 278 621 l 39 621 l 43 460 z "},"‡":{"ha":731,"x_min":0,"x_max":0,"o":"m 281 476 l 281 217 l 43 217 l 39 56 l 278 56 l 278 -175 l 453 -175 l 453 56 l 693 56 l 689 217 l 450 217 l 450 476 l 689 476 l 693 638 l 453 638 l 453 868 l 278 868 l 278 638 l 39 638 l 43 476 z "},"§":{"ha":732,"x_min":0,"x_max":0,"o":"m 708 417 b 464 615 708 536 578 583 b 300 694 376 639 300 653 b 379 743 300 728 328 743 b 601 685 440 743 528 721 l 644 838 b 382 893 578 874 458 893 b 97 685 203 893 97 807 b 165 556 97 626 125 588 b 29 392 81 529 29 471 b 292 192 29 256 172 221 b 456 111 379 171 456 151 b 368 58 456 78 426 58 b 132 119 294 58 207 81 l 90 -33 b 365 -92 161 -71 278 -92 b 657 122 554 -92 657 6 b 582 253 657 181 626 221 b 708 417 664 283 708 342 z m 540 369 b 496 290 540 339 518 307 b 197 435 364 344 197 363 b 244 517 197 464 219 497 b 540 369 374 461 540 447 z "},"¶":{"ha":819,"x_min":0,"x_max":0,"o":"m 531 278 l 531 -99 l 717 -99 l 717 868 b 443 868 717 868 431 868 b 53 574 192 868 53 758 b 426 274 53 385 178 274 b 531 278 438 274 521 275 z "},"©":{"ha":1110,"x_min":0,"x_max":0,"o":"m 554 -82 b 1069 432 839 -82 1069 149 b 554 949 1069 717 839 949 b 40 432 269 949 40 717 b 554 -82 40 149 269 -82 z m 1022 432 b 554 -39 1022 174 813 -39 b 88 432 296 -39 88 174 b 554 904 88 690 296 904 b 1022 432 813 904 1022 690 z m 765 674 b 589 710 715 693 656 710 b 296 432 404 710 296 601 b 582 158 296 250 407 158 b 758 193 644 158 719 174 l 722 338 b 590 300 681 314 639 300 b 467 436 508 300 467 353 b 590 567 467 515 514 567 b 714 533 632 567 681 553 z "},"®":{"ha":1110,"x_min":0,"x_max":0,"o":"m 554 -82 b 1069 432 839 -82 1069 149 b 554 949 1069 717 839 949 b 40 432 269 949 40 717 b 554 -82 40 149 269 -82 z m 1022 432 b 554 -39 1022 174 813 -39 b 88 432 296 -39 88 174 b 554 904 88 690 296 904 b 1022 432 813 904 1022 690 z m 496 343 l 557 347 l 647 179 l 825 179 l 706 381 b 804 528 772 408 804 465 b 582 699 804 633 728 699 b 331 699 572 699 331 699 l 331 179 l 496 179 z m 494 444 l 494 585 b 549 585 494 585 544 585 b 636 518 610 585 636 561 b 551 446 636 471 606 447 z "},"ⓟ":{"ha":1110,"x_min":0,"x_max":0,"o":"m 554 -82 b 1069 432 839 -82 1069 149 b 554 949 1069 717 839 949 b 40 432 269 949 40 717 b 554 -82 40 149 269 -82 z m 1022 432 b 554 -39 1022 174 813 -39 b 88 432 296 -39 88 174 b 554 904 88 690 296 904 b 1022 432 813 904 1022 690 z m 828 510 b 592 694 828 625 744 694 l 363 694 l 363 174 l 532 174 l 532 313 l 585 313 b 828 510 736 313 828 381 z m 664 506 b 568 425 664 451 632 428 l 525 424 l 525 579 b 571 579 525 579 554 579 b 664 506 632 579 664 553 z "},"™":{"ha":1364,"x_min":0,"x_max":0,"o":"m 1265 350 l 1261 868 l 1032 868 l 947 510 l 929 510 l 861 868 l 625 868 l 615 350 l 742 350 l 746 736 l 761 736 l 854 367 l 1008 367 l 1119 735 l 1136 735 l 1131 350 z m 556 747 l 556 868 l 50 868 l 50 747 l 225 747 l 225 350 l 365 350 l 365 747 z "},".":{"ha":386,"x_min":0,"x_max":0,"o":"m 325 106 b 194 232 325 182 272 232 b 63 106 115 232 63 182 b 194 -21 63 31 115 -21 b 325 106 272 -21 325 31 z "},",":{"ha":386,"x_min":0,"x_max":0,"o":"m 33 110 b 158 6 129 71 158 43 b 19 -142 158 -40 96 -87 l 114 -225 b 349 58 235 -160 349 -68 b 182 236 349 153 279 236 b 33 110 103 236 42 185 z "},":":{"ha":386,"x_min":0,"x_max":0,"o":"m 325 497 b 194 624 325 572 272 624 b 63 497 115 624 63 572 b 194 371 63 422 115 371 b 325 497 272 371 325 422 z m 325 106 b 194 232 325 182 272 232 b 63 106 115 232 63 182 b 194 -21 63 31 115 -21 b 325 106 272 -21 325 31 z "},";":{"ha":386,"x_min":0,"x_max":0,"o":"m 325 497 b 194 624 325 572 272 624 b 63 497 115 624 63 572 b 194 371 63 422 115 371 b 325 497 272 371 325 422 z m 33 110 b 158 6 129 71 158 43 b 19 -142 158 -40 96 -87 l 114 -225 b 349 58 235 -160 349 -68 b 182 236 349 153 279 236 b 33 110 103 236 42 185 z "},"!":{"ha":422,"x_min":0,"x_max":0,"o":"m 132 299 l 293 299 l 338 906 l 86 906 z m 342 97 b 211 214 342 172 289 214 b 79 97 133 214 79 172 b 211 -21 79 21 133 -21 b 342 97 289 -21 342 21 z "},"¡":{"ha":422,"x_min":0,"x_max":0,"o":"m 85 769 b 211 653 85 697 140 653 b 336 769 281 653 336 697 b 211 888 336 843 281 888 b 85 769 140 888 85 843 z m 286 568 l 136 568 l 90 -39 l 332 -39 z "},"?":{"ha":581,"x_min":0,"x_max":0,"o":"m 535 625 b 221 889 535 774 407 889 b 69 863 157 889 107 878 l 61 683 b 204 710 97 697 160 710 b 342 638 289 710 342 683 b 238 572 342 601 307 592 b 99 435 151 549 99 507 b 214 279 99 375 142 308 b 350 300 226 279 350 300 b 274 379 335 315 274 363 b 374 431 283 403 318 414 b 535 625 463 460 535 514 z m 381 97 b 249 214 381 172 328 214 b 118 97 171 214 118 172 b 249 -21 118 21 171 -21 b 381 97 328 -21 381 21 z "},"¿":{"ha":581,"x_min":0,"x_max":0,"o":"m 46 243 b 358 -21 46 93 172 -21 b 511 4 424 -21 474 -10 l 519 183 b 376 158 483 171 421 158 b 239 229 292 158 239 185 b 343 296 239 265 274 276 b 482 432 429 319 482 361 b 365 589 482 493 439 558 b 231 568 354 589 231 568 b 307 488 246 551 307 506 b 207 436 297 465 263 454 b 46 243 118 408 46 353 z m 199 771 b 329 654 199 694 251 654 b 461 771 407 654 461 694 b 329 889 461 846 407 889 b 199 771 251 889 199 846 z "},"‘":{"ha":376,"x_min":0,"x_max":0,"o":"m 344 578 b 219 682 247 618 219 644 b 358 829 219 728 281 776 l 264 911 b 29 629 143 847 29 756 b 194 453 29 535 97 453 b 344 578 274 453 336 503 z "},"’":{"ha":376,"x_min":0,"x_max":0,"o":"m 33 803 b 158 697 129 763 158 735 b 19 551 158 651 96 604 l 114 468 b 349 751 235 533 349 624 b 182 928 349 846 279 928 b 33 803 103 928 42 878 z "},"“":{"ha":750,"x_min":0,"x_max":0,"o":"m 717 578 b 592 682 621 618 592 644 b 731 829 592 728 653 776 l 636 911 b 401 629 515 847 401 756 b 567 453 401 535 469 453 b 717 578 646 453 708 503 z m 344 578 b 219 682 247 618 219 644 b 358 829 219 728 281 776 l 264 911 b 29 629 143 847 29 756 b 194 453 29 535 97 453 b 344 578 274 453 336 503 z "},"”":{"ha":750,"x_min":0,"x_max":0,"o":"m 406 803 b 531 697 501 763 531 735 b 392 551 531 651 469 604 l 486 468 b 721 751 607 533 721 624 b 556 928 721 846 653 928 b 406 803 475 928 414 878 z m 33 803 b 158 697 129 763 158 735 b 19 551 158 651 96 604 l 114 468 b 349 751 235 533 349 624 b 182 928 349 846 279 928 b 33 803 103 928 42 878 z "},"‚":{"ha":376,"x_min":0,"x_max":0,"o":"m 33 114 b 158 8 129 74 158 46 b 19 -137 158 -37 96 -85 l 114 -221 b 349 63 235 -156 349 -65 b 182 239 349 157 279 239 b 33 114 103 239 42 189 z "},"„":{"ha":743,"x_min":0,"x_max":0,"o":"m 406 114 b 531 8 501 74 531 46 b 392 -137 531 -37 469 -85 l 486 -221 b 721 63 607 -156 721 -65 b 556 239 721 157 653 239 b 406 114 475 239 414 189 z m 33 114 b 158 8 129 74 158 46 b 19 -137 158 -37 96 -85 l 114 -221 b 349 63 235 -156 349 -65 b 182 239 349 157 279 239 b 33 114 103 239 42 189 z "},"‹":{"ha":504,"x_min":0,"x_max":0,"o":"m 456 151 l 226 322 l 226 325 l 456 497 l 419 633 l 35 411 l 35 238 l 419 17 z "},"›":{"ha":504,"x_min":0,"x_max":0,"o":"m 469 238 l 469 411 l 85 632 l 49 496 l 278 325 l 278 322 l 49 151 l 85 15 z "},"«":{"ha":840,"x_min":0,"x_max":0,"o":"m 811 151 l 617 322 l 617 325 l 811 497 l 776 633 l 419 411 l 419 238 l 776 17 z m 407 163 l 217 322 l 217 325 l 407 486 l 369 618 l 24 408 l 24 242 l 369 31 z "},"»":{"ha":847,"x_min":0,"x_max":0,"o":"m 825 242 l 825 408 l 478 618 l 442 486 l 631 325 l 631 322 l 442 163 l 478 31 z m 428 238 l 428 411 l 72 633 l 38 497 l 232 325 l 232 322 l 38 151 l 72 17 z "},"·":{"ha":379,"x_min":0,"x_max":0,"o":"m 325 356 b 194 482 325 432 272 482 b 63 356 115 482 63 432 b 194 229 63 281 115 229 b 325 356 272 229 325 281 z "},"…":{"ha":1144,"x_min":0,"x_max":0,"o":"m 1083 101 b 958 224 1083 175 1028 224 b 832 101 889 224 832 175 b 958 -21 832 29 889 -21 b 1083 101 1028 -21 1083 29 z m 701 101 b 576 224 701 175 646 224 b 449 101 506 224 449 175 b 576 -21 449 29 506 -21 b 701 101 646 -21 701 29 z m 318 101 b 193 224 318 175 263 224 b 67 101 124 224 67 175 b 193 -21 67 29 124 -21 b 318 101 263 -21 318 29 z "},"-":{"ha":517,"x_min":0,"x_max":0,"o":"m 481 251 l 481 422 l 39 422 l 39 251 z "},"­":{"ha":517,"x_min":0,"x_max":0,"o":"m 481 251 l 481 422 l 39 422 l 39 251 z "},"–":{"ha":731,"x_min":0,"x_max":0,"o":"m 697 253 l 693 415 l 39 415 l 35 253 z "},"—":{"ha":1383,"x_min":0,"x_max":0,"o":"m 1350 253 l 1346 415 l 39 415 l 35 253 z "},"_":{"ha":754,"x_min":0,"x_max":0,"o":"m 765 -162 l 765 0 l -11 0 l -11 -162 z "},"`":{"ha":551,"x_min":0,"x_max":0,"o":"m 408 732 l 271 989 l 40 989 l 275 732 z "},"´":{"ha":551,"x_min":0,"x_max":0,"o":"m 514 989 l 283 989 l 146 732 l 279 732 z "},"¨":{"ha":553,"x_min":0,"x_max":0,"o":"m 549 844 b 439 951 549 914 506 951 b 329 844 374 951 329 914 b 439 738 329 775 374 738 b 549 844 506 738 549 775 z m 226 844 b 115 951 226 914 181 951 b 4 844 50 951 4 914 b 115 738 4 775 50 738 b 226 844 181 738 226 775 z "},"¯":{"ha":553,"x_min":0,"x_max":0,"o":"m 531 763 l 515 883 l 40 883 l 25 763 z "},"¸":{"ha":553,"x_min":0,"x_max":0,"o":"m 272 -71 b 411 54 303 -44 411 54 l 306 54 l 149 -92 l 163 -162 b 324 -222 269 -154 324 -171 b 161 -294 324 -262 281 -289 l 172 -393 b 449 -208 367 -369 449 -301 b 272 -71 449 -122 367 -75 z "},"ˆ":{"ha":553,"x_min":0,"x_max":0,"o":"m 540 732 l 375 992 l 181 992 l 15 732 l 164 732 l 276 881 l 279 881 l 394 732 z "},"ˇ":{"ha":553,"x_min":0,"x_max":0,"o":"m 540 992 l 392 992 l 279 842 l 276 842 l 161 992 l 15 992 l 181 732 l 375 732 z "},"˘":{"ha":553,"x_min":0,"x_max":0,"o":"m 531 986 l 401 985 b 278 844 388 901 349 844 b 154 985 208 844 169 901 l 25 986 b 278 722 40 803 157 722 b 531 986 401 722 515 803 z "},"˙":{"ha":553,"x_min":0,"x_max":0,"o":"m 394 833 b 278 954 394 897 350 954 b 161 833 208 954 161 897 b 278 713 161 767 208 713 b 394 833 350 713 394 767 z "},"˚":{"ha":553,"x_min":0,"x_max":0,"o":"m 474 889 b 278 1053 474 982 399 1053 b 82 889 157 1053 82 981 b 278 725 82 797 157 725 b 474 889 399 725 475 797 z m 392 890 b 278 793 392 835 349 793 b 165 890 210 793 165 835 b 278 985 165 946 210 985 b 392 890 349 985 392 946 z "},"˛":{"ha":553,"x_min":0,"x_max":0,"o":"m 461 -306 l 449 -221 b 296 -271 397 -251 342 -271 b 213 -194 243 -271 213 -240 b 479 43 213 -114 301 -21 l 350 43 b 85 -219 193 4 85 -111 b 267 -383 85 -319 164 -383 b 461 -306 350 -383 414 -346 z "},"˜":{"ha":551,"x_min":0,"x_max":0,"o":"m 543 949 b 415 949 549 949 421 949 b 372 878 408 893 396 878 b 161 957 328 878 249 957 b 10 746 79 957 26 911 b 136 746 3 746 131 746 b 181 815 143 801 157 815 b 390 736 224 815 304 736 b 543 949 472 736 526 782 z "},"˝":{"ha":551,"x_min":0,"x_max":0,"o":"m 732 986 l 535 986 l 336 732 l 475 732 z m 426 986 l 229 986 l 58 732 l 201 732 z "},"":{"ha":553,"x_min":0,"x_max":0,"o":"m 146 -169 b 235 -247 222 -193 235 -218 b 143 -347 235 -276 207 -311 l 190 -397 b 381 -196 308 -360 381 -286 b 254 -71 381 -122 328 -71 b 146 -169 192 -71 147 -117 z "},"⁰":{"ha":458,"x_min":0,"x_max":0,"o":"m 440 638 b 231 906 440 811 374 906 b 18 636 89 906 18 811 b 225 367 18 460 81 367 b 440 638 369 367 440 461 z m 286 633 b 231 478 286 503 261 478 b 169 636 200 478 169 503 b 228 797 169 772 197 797 b 286 633 258 797 286 771 z "},"⁴":{"ha":458,"x_min":0,"x_max":0,"o":"m 447 497 l 444 606 l 386 606 l 386 899 l 185 899 l 10 601 l 15 497 l 240 497 l 240 379 l 386 379 l 386 497 z m 246 604 l 138 604 l 246 799 z "},"⁵":{"ha":458,"x_min":0,"x_max":0,"o":"m 188 700 l 196 774 l 417 774 l 414 896 l 69 896 l 32 610 l 51 589 b 167 606 78 599 118 606 b 268 544 231 606 268 583 b 185 488 268 506 231 488 b 33 518 133 488 69 500 l 21 394 b 196 367 75 374 147 367 b 428 549 357 367 428 444 b 228 701 428 639 360 701 b 188 700 215 701 196 700 z "},"⁶":{"ha":458,"x_min":0,"x_max":0,"o":"m 19 604 b 228 365 19 463 92 365 b 438 558 371 365 438 449 b 293 711 438 654 376 711 b 167 660 243 711 200 692 l 163 661 b 386 801 183 735 278 793 l 350 914 b 19 604 143 893 19 764 z m 161 554 b 164 589 161 565 161 576 b 235 611 176 600 210 611 b 300 547 274 611 300 586 b 233 474 300 503 274 474 b 161 554 186 474 161 513 z "},"⁷":{"ha":458,"x_min":0,"x_max":0,"o":"m 276 771 l 58 379 l 213 379 l 429 785 l 431 896 l 35 896 l 32 771 z "},"⁸":{"ha":458,"x_min":0,"x_max":0,"o":"m 446 528 b 333 654 446 593 394 631 b 438 761 404 674 438 713 b 233 906 438 856 353 906 b 21 746 85 906 21 838 b 125 624 21 685 69 646 b 13 513 49 601 13 561 b 226 367 13 417 108 367 b 446 528 379 367 446 438 z m 297 750 b 251 681 297 726 285 700 b 169 754 189 697 169 724 b 232 810 169 786 190 810 b 297 750 272 810 297 786 z m 306 525 b 233 468 306 489 279 468 b 157 532 182 468 157 497 b 206 603 157 554 168 582 b 306 525 272 585 306 558 z "},"⁹":{"ha":458,"x_min":0,"x_max":0,"o":"m 439 669 b 231 907 439 811 367 907 b 21 710 88 907 21 819 b 165 554 21 614 83 554 b 296 603 217 554 263 571 l 300 601 b 72 471 278 528 181 486 l 107 358 b 439 669 315 379 439 508 z m 297 718 b 294 675 297 707 297 689 b 224 654 282 664 247 654 b 158 726 183 654 158 686 b 225 799 158 769 183 799 b 297 718 272 799 297 760 z "},"⁺":{"ha":458,"x_min":0,"x_max":0,"o":"m 390 592 l 389 681 l 264 681 l 264 808 l 171 808 l 171 681 l 46 681 l 43 592 l 171 592 l 171 464 l 264 464 l 264 592 z "},"⁻":{"ha":458,"x_min":0,"x_max":0,"o":"m 390 592 l 389 681 l 46 681 l 43 592 z "},"₀":{"ha":458,"x_min":0,"x_max":0,"o":"m 440 60 b 231 328 440 233 374 328 b 18 58 89 328 18 233 b 225 -211 18 -118 81 -211 b 440 60 369 -211 440 -117 z m 286 56 b 231 -100 286 -75 261 -100 b 169 58 200 -100 169 -75 b 228 219 169 194 197 219 b 286 56 258 219 286 193 z "},"₁":{"ha":458,"x_min":0,"x_max":0,"o":"m 178 -199 l 353 -199 l 353 328 l 50 278 l 56 149 l 178 169 z "},"₂":{"ha":458,"x_min":0,"x_max":0,"o":"m 410 -199 l 407 -74 b 211 -74 407 -74 210 -74 b 410 160 349 31 410 82 b 215 328 410 250 347 328 b 15 257 136 328 64 301 b 71 147 11 257 67 147 b 183 200 101 179 143 200 b 244 146 224 200 244 178 b 21 -97 244 89 190 46 l 24 -199 z "},"₃":{"ha":458,"x_min":0,"x_max":0,"o":"m 264 69 b 401 194 356 92 401 135 b 211 328 401 286 325 328 b 24 279 138 328 68 306 l 71 168 b 189 207 100 189 147 207 b 246 168 236 207 246 189 b 100 100 246 129 200 115 l 100 -3 b 182 6 121 0 151 6 b 274 -44 251 6 274 -17 b 182 -93 274 -79 236 -93 b 49 -65 142 -93 92 -81 l 25 -178 b 193 -211 68 -196 126 -211 b 424 -53 329 -211 424 -154 b 264 69 424 18 369 75 z "},"₄":{"ha":458,"x_min":0,"x_max":0,"o":"m 447 -81 l 444 28 l 386 28 l 386 321 l 185 321 l 10 24 l 15 -81 l 240 -81 l 240 -199 l 386 -199 l 386 -81 z m 246 26 l 138 26 l 246 221 z "},"₅":{"ha":458,"x_min":0,"x_max":0,"o":"m 188 122 l 196 196 l 417 196 l 414 318 l 69 318 l 32 32 l 51 11 b 167 28 78 21 118 28 b 268 -33 231 28 268 6 b 185 -90 268 -72 231 -90 b 33 -60 133 -90 69 -78 l 21 -183 b 196 -211 75 -204 147 -211 b 428 -29 357 -211 428 -133 b 228 124 428 61 360 124 b 188 122 215 124 196 122 z "},"₆":{"ha":458,"x_min":0,"x_max":0,"o":"m 19 26 b 228 -212 19 -115 92 -212 b 438 -19 371 -212 438 -129 b 293 133 438 76 376 133 b 167 82 243 133 200 114 l 163 83 b 386 224 183 157 278 215 l 350 336 b 19 26 143 315 19 186 z m 161 -24 b 164 11 161 -12 161 -1 b 235 33 176 22 210 33 b 300 -31 274 33 300 8 b 233 -104 300 -75 274 -104 b 161 -24 186 -104 161 -65 z "},"₇":{"ha":458,"x_min":0,"x_max":0,"o":"m 276 193 l 58 -199 l 213 -199 l 429 207 l 431 318 l 35 318 l 32 193 z "},"₈":{"ha":458,"x_min":0,"x_max":0,"o":"m 446 -50 b 333 76 446 15 394 53 b 438 183 404 96 438 135 b 233 328 438 278 353 328 b 21 168 85 328 21 260 b 125 46 21 107 69 68 b 13 -65 49 24 13 -17 b 226 -211 13 -161 108 -211 b 446 -50 379 -211 446 -140 z m 297 172 b 251 103 297 149 285 122 b 169 176 189 119 169 146 b 232 232 169 208 190 232 b 297 172 272 232 297 208 z m 306 -53 b 233 -110 306 -89 279 -110 b 157 -46 182 -110 157 -81 b 206 25 157 -24 168 4 b 306 -53 272 7 306 -19 z "},"₉":{"ha":458,"x_min":0,"x_max":0,"o":"m 439 92 b 231 329 439 233 367 329 b 21 132 88 329 21 242 b 165 -24 21 36 83 -24 b 296 25 217 -24 263 -7 l 300 24 b 72 -107 278 -50 181 -92 l 107 -219 b 439 92 315 -199 439 -69 z m 297 140 b 294 97 297 129 297 111 b 224 76 282 86 247 76 b 158 149 183 76 158 108 b 225 221 158 192 183 221 b 297 140 272 221 297 182 z "}," ":{"ha":317,"x_min":0,"x_max":0,"o":""}}}
